G04 #@! TF.GenerationSoftware,KiCad,Pcbnew,(5.1.12)-1*
G04 #@! TF.CreationDate,2021-11-30T21:54:39+03:00*
G04 #@! TF.ProjectId,ITR-1,4954522d-312e-46b6-9963-61645f706362,rev?*
G04 #@! TF.SameCoordinates,Original*
G04 #@! TF.FileFunction,Copper,L1,Top*
G04 #@! TF.FilePolarity,Positive*
%FSLAX46Y46*%
G04 Gerber Fmt 4.6, Leading zero omitted, Abs format (unit mm)*
G04 Created by KiCad (PCBNEW (5.1.12)-1) date 2021-11-30 21:54:39*
%MOMM*%
%LPD*%
G01*
G04 APERTURE LIST*
G04 #@! TA.AperFunction,NonConductor*
%ADD10C,0.200000*%
G04 #@! TD*
G04 #@! TA.AperFunction,ComponentPad*
%ADD11C,1.600000*%
G04 #@! TD*
G04 #@! TA.AperFunction,SMDPad,CuDef*
%ADD12R,0.500000X1.250000*%
G04 #@! TD*
G04 #@! TA.AperFunction,ComponentPad*
%ADD13O,2.600000X1.100000*%
G04 #@! TD*
G04 #@! TA.AperFunction,ComponentPad*
%ADD14O,2.000000X1.000000*%
G04 #@! TD*
G04 #@! TA.AperFunction,SMDPad,CuDef*
%ADD15R,0.700000X1.000000*%
G04 #@! TD*
G04 #@! TA.AperFunction,SMDPad,CuDef*
%ADD16R,0.700000X0.250000*%
G04 #@! TD*
G04 #@! TA.AperFunction,SMDPad,CuDef*
%ADD17R,1.000000X1.700000*%
G04 #@! TD*
G04 #@! TA.AperFunction,SMDPad,CuDef*
%ADD18R,1.100000X0.800000*%
G04 #@! TD*
G04 #@! TA.AperFunction,SMDPad,CuDef*
%ADD19R,1.250000X0.500000*%
G04 #@! TD*
G04 #@! TA.AperFunction,SMDPad,CuDef*
%ADD20R,0.700000X1.100000*%
G04 #@! TD*
G04 #@! TA.AperFunction,SMDPad,CuDef*
%ADD21R,0.750000X1.250000*%
G04 #@! TD*
G04 #@! TA.AperFunction,ComponentPad*
%ADD22C,1.000000*%
G04 #@! TD*
G04 #@! TA.AperFunction,SMDPad,CuDef*
%ADD23R,4.000000X1.500000*%
G04 #@! TD*
G04 #@! TA.AperFunction,ComponentPad*
%ADD24C,2.000000*%
G04 #@! TD*
G04 #@! TA.AperFunction,ComponentPad*
%ADD25R,2.000000X2.000000*%
G04 #@! TD*
G04 #@! TA.AperFunction,SMDPad,CuDef*
%ADD26R,1.500000X0.800000*%
G04 #@! TD*
G04 #@! TA.AperFunction,SMDPad,CuDef*
%ADD27R,0.800000X1.100000*%
G04 #@! TD*
G04 #@! TA.AperFunction,SMDPad,CuDef*
%ADD28R,1.200000X1.500000*%
G04 #@! TD*
G04 #@! TA.AperFunction,SMDPad,CuDef*
%ADD29R,1.100000X0.700000*%
G04 #@! TD*
G04 #@! TA.AperFunction,SMDPad,CuDef*
%ADD30O,0.900000X2.000000*%
G04 #@! TD*
G04 #@! TA.AperFunction,SMDPad,CuDef*
%ADD31R,0.900000X2.000000*%
G04 #@! TD*
G04 #@! TA.AperFunction,SMDPad,CuDef*
%ADD32R,1.350000X1.350000*%
G04 #@! TD*
G04 #@! TA.AperFunction,SMDPad,CuDef*
%ADD33R,2.000000X0.900000*%
G04 #@! TD*
G04 #@! TA.AperFunction,ViaPad*
%ADD34C,0.800000*%
G04 #@! TD*
G04 #@! TA.AperFunction,Conductor*
%ADD35C,0.250000*%
G04 #@! TD*
G04 #@! TA.AperFunction,Conductor*
%ADD36C,0.350000*%
G04 #@! TD*
G04 #@! TA.AperFunction,Conductor*
%ADD37C,0.200000*%
G04 #@! TD*
G04 #@! TA.AperFunction,Conductor*
%ADD38C,0.100000*%
G04 #@! TD*
G04 APERTURE END LIST*
D10*
X100704761Y-99361904D02*
X100704761Y-98561904D01*
X100971428Y-98561904D02*
X101428571Y-98561904D01*
X101200000Y-99361904D02*
X101200000Y-98561904D01*
X102152380Y-99361904D02*
X101885714Y-98980952D01*
X101695238Y-99361904D02*
X101695238Y-98561904D01*
X102000000Y-98561904D01*
X102076190Y-98600000D01*
X102114285Y-98638095D01*
X102152380Y-98714285D01*
X102152380Y-98828571D01*
X102114285Y-98904761D01*
X102076190Y-98942857D01*
X102000000Y-98980952D01*
X101695238Y-98980952D01*
X102495238Y-99057142D02*
X103104761Y-99057142D01*
X103904761Y-99361904D02*
X103447619Y-99361904D01*
X103676190Y-99361904D02*
X103676190Y-98561904D01*
X103600000Y-98676190D01*
X103523809Y-98752380D01*
X103447619Y-98790476D01*
X104247619Y-99057142D02*
X104857142Y-99057142D01*
X105200000Y-98638095D02*
X105238095Y-98600000D01*
X105314285Y-98561904D01*
X105504761Y-98561904D01*
X105580952Y-98600000D01*
X105619047Y-98638095D01*
X105657142Y-98714285D01*
X105657142Y-98790476D01*
X105619047Y-98904761D01*
X105161904Y-99361904D01*
X105657142Y-99361904D01*
X106000000Y-99361904D02*
X106000000Y-98561904D01*
X106457142Y-99361904D01*
X106457142Y-98561904D01*
X106838095Y-99361904D02*
X106838095Y-98561904D01*
X107295238Y-99361904D01*
X107295238Y-98561904D01*
D11*
X114750000Y-59500000D03*
X114750000Y-57500000D03*
X128000000Y-72500000D03*
X128000000Y-70000000D03*
D12*
X123625000Y-73000000D03*
X125375000Y-73000000D03*
X124625000Y-71000000D03*
X126375000Y-71000000D03*
D13*
X128250000Y-55950000D03*
D14*
X122900000Y-55950000D03*
D13*
X128250000Y-64550000D03*
D14*
X122900000Y-64550000D03*
D15*
X123800000Y-57150000D03*
X123800000Y-63350000D03*
D16*
X123800000Y-58000000D03*
X123800000Y-58500000D03*
X123800000Y-59000000D03*
X123800000Y-59500000D03*
X123800000Y-60000000D03*
X123800000Y-60500000D03*
X123800000Y-61000000D03*
X123800000Y-61500000D03*
X123800000Y-62000000D03*
X123800000Y-62500000D03*
X122500000Y-57250000D03*
X122500000Y-57750000D03*
X122500000Y-58250000D03*
X122500000Y-58750000D03*
X122500000Y-59250000D03*
X122500000Y-59750000D03*
X122500000Y-60750000D03*
X122500000Y-61250000D03*
X122500000Y-61750000D03*
X122500000Y-62250000D03*
X122500000Y-62750000D03*
X122500000Y-63250000D03*
D11*
X128250000Y-66750000D03*
X122750000Y-66750000D03*
D17*
X118500000Y-73500000D03*
X118500000Y-76000000D03*
X120000000Y-76000000D03*
X120000000Y-73500000D03*
D18*
X112200000Y-73700000D03*
X110000000Y-74650000D03*
X110000000Y-72750000D03*
D19*
X108000000Y-72750000D03*
X108000000Y-74500000D03*
D20*
X106000000Y-73250000D03*
X105050000Y-73250000D03*
X104100000Y-73250000D03*
X104100000Y-75850000D03*
X106000000Y-75850000D03*
D19*
X102000000Y-73375000D03*
X102000000Y-75125000D03*
D11*
X119750000Y-57500000D03*
X116750000Y-57500000D03*
D21*
X127750000Y-76100000D03*
X127750000Y-80600000D03*
X129250000Y-76100000D03*
X129250000Y-80600000D03*
D22*
X129400000Y-78350000D03*
X127600000Y-78350000D03*
D21*
X127750000Y-94250000D03*
X127750000Y-98750000D03*
X129250000Y-94250000D03*
X129250000Y-98750000D03*
D22*
X129400000Y-96500000D03*
X127600000Y-96500000D03*
D19*
X114250000Y-72825000D03*
X114250000Y-74575000D03*
D12*
X112875000Y-98750000D03*
X111125000Y-98750000D03*
X128550000Y-74400000D03*
X126800000Y-74400000D03*
D23*
X111500000Y-61250000D03*
X111500000Y-56750000D03*
D24*
X104750000Y-57750000D03*
X104750000Y-63750000D03*
D25*
X107500000Y-57000000D03*
X107500000Y-60250000D03*
X107500000Y-63750000D03*
X102000000Y-57000000D03*
X102000000Y-60250000D03*
X102000000Y-63750000D03*
D26*
X116250000Y-75950000D03*
X116250000Y-72250000D03*
D12*
X119250000Y-98750000D03*
X121000000Y-98750000D03*
X123250000Y-98500000D03*
X125000000Y-98500000D03*
D19*
X125000000Y-75000000D03*
X125000000Y-76750000D03*
D27*
X119200000Y-60050000D03*
X120150000Y-62250000D03*
X118250000Y-62250000D03*
X125500000Y-66749999D03*
X126450000Y-68949999D03*
X124550000Y-68949999D03*
D19*
X116000001Y-67000000D03*
X116000001Y-65250000D03*
D12*
X118500000Y-64250000D03*
X120250000Y-64250000D03*
D19*
X116500000Y-61125000D03*
X116500000Y-62875000D03*
D28*
X111900000Y-69750000D03*
X113750000Y-69750000D03*
X113750000Y-67500000D03*
X111900000Y-67500000D03*
D29*
X111200000Y-63550000D03*
X111200000Y-64500000D03*
X111200000Y-65450000D03*
X113800000Y-65450000D03*
X113800000Y-63550000D03*
D27*
X119250000Y-70350000D03*
X118300000Y-68150000D03*
X120200000Y-68150000D03*
D18*
X103650000Y-68750000D03*
X105850000Y-67800000D03*
X105850000Y-69700000D03*
D19*
X122000000Y-68750000D03*
X122000000Y-70500000D03*
D12*
X118500000Y-66250000D03*
X120250000Y-66250000D03*
D19*
X108750000Y-69625000D03*
X108750000Y-67875000D03*
D30*
X108297127Y-96250000D03*
D31*
X108297127Y-79250000D03*
X109567127Y-96250000D03*
X109567127Y-79250000D03*
X110837127Y-96250000D03*
X110837127Y-79250000D03*
X112107127Y-96250000D03*
X112107127Y-79250000D03*
X113377127Y-96250000D03*
X113377127Y-79250000D03*
X114647127Y-96250000D03*
X114647127Y-79250000D03*
X115917127Y-96250000D03*
X115917127Y-79250000D03*
X117187127Y-96250000D03*
X117187127Y-79250000D03*
X118457127Y-96250000D03*
X118457127Y-79250000D03*
X119727127Y-96250000D03*
X119727127Y-79250000D03*
X120997127Y-96250000D03*
X120997127Y-79250000D03*
X122267127Y-96250000D03*
X122267127Y-79250000D03*
X123537127Y-96250000D03*
X123537127Y-79250000D03*
D32*
X115797127Y-88750000D03*
X114047127Y-88750000D03*
X117547127Y-88750000D03*
X117547127Y-87000000D03*
X114047127Y-87000000D03*
X115797127Y-87000000D03*
X117547127Y-90500000D03*
X114047127Y-90500000D03*
X115797127Y-90500000D03*
D31*
X124807127Y-79250000D03*
D33*
X125797127Y-82070000D03*
X125797127Y-83340000D03*
X125797127Y-93500000D03*
X125797127Y-92230000D03*
D34*
X110000000Y-63500000D03*
X121000000Y-71250000D03*
X123250000Y-70000000D03*
X112250000Y-90500001D03*
X112250000Y-88749999D03*
X112250000Y-87000000D03*
X116000000Y-68000000D03*
X110250000Y-66750000D03*
X110000000Y-64500000D03*
X113750000Y-99250000D03*
X128750000Y-92750000D03*
X112250000Y-75000000D03*
X113750000Y-71750000D03*
X105250000Y-72000000D03*
X127500000Y-85500000D03*
X110000000Y-99250000D03*
X128800000Y-82200000D03*
X121250000Y-62500000D03*
X103250000Y-67000000D03*
X101000000Y-76750000D03*
X102737347Y-77012653D03*
X115000000Y-77000000D03*
X111000000Y-71725000D03*
X114325846Y-98424154D03*
X110000000Y-98000000D03*
X123750000Y-75750000D03*
X112000000Y-77500000D03*
X113250000Y-77500000D03*
X117737347Y-71762653D03*
X103250000Y-72500000D03*
X127500000Y-84500000D03*
X127500000Y-91500000D03*
X117250000Y-98000000D03*
X116000000Y-98000000D03*
X127500000Y-86750000D03*
X127500000Y-90000000D03*
X109750000Y-71500000D03*
X118750000Y-72000000D03*
D35*
X113800000Y-63550000D02*
X115800000Y-63550000D01*
X115800000Y-63550000D02*
X116000000Y-63750000D01*
X116000000Y-63750000D02*
X116000000Y-65250000D01*
X110050000Y-63550000D02*
X110000000Y-63500000D01*
X111200000Y-63550000D02*
X110050000Y-63550000D01*
X118000000Y-71000000D02*
X118250000Y-71250000D01*
X118250000Y-71250000D02*
X119000000Y-71250000D01*
X119000000Y-71250000D02*
X119250000Y-71000000D01*
X119250000Y-71000000D02*
X119250000Y-70250000D01*
X119250000Y-71000000D02*
X119500000Y-71250000D01*
X119000000Y-71250000D02*
X119500000Y-71250000D01*
X126450000Y-69000000D02*
X126450000Y-69800000D01*
X126450000Y-69800000D02*
X126250000Y-70000000D01*
X126250000Y-70000000D02*
X125500000Y-70000000D01*
X125500000Y-70000000D02*
X125000001Y-70000000D01*
X125000001Y-70000000D02*
X124750000Y-70000000D01*
X124550000Y-69800000D02*
X124750000Y-70000000D01*
X124550000Y-69000000D02*
X124550000Y-69800000D01*
X108750000Y-70125000D02*
X108625000Y-70250000D01*
X108750000Y-69625000D02*
X108750000Y-70125000D01*
X108625000Y-70250000D02*
X108000000Y-70250000D01*
X108000000Y-70250000D02*
X107250000Y-70250000D01*
X106700000Y-69700000D02*
X106875000Y-69875000D01*
X105850000Y-69700000D02*
X106700000Y-69700000D01*
X106875000Y-69875000D02*
X106750000Y-69750000D01*
X107250000Y-70250000D02*
X106875000Y-69875000D01*
X110250000Y-70250000D02*
X111000000Y-71000000D01*
X111000000Y-71000000D02*
X118000000Y-71000000D01*
X108625000Y-70250000D02*
X109000000Y-70250000D01*
X108875000Y-70250000D02*
X108750000Y-70125000D01*
X109250000Y-70250000D02*
X108875000Y-70250000D01*
X109000000Y-70250000D02*
X109250000Y-70250000D01*
X109250000Y-70250000D02*
X110250000Y-70250000D01*
X119500000Y-71250000D02*
X121000000Y-71250000D01*
X124350000Y-70000000D02*
X124550000Y-69800000D01*
X123250000Y-70000000D02*
X124350000Y-70000000D01*
X124750000Y-70000000D02*
X124350000Y-70000000D01*
X120750000Y-66250000D02*
X120250000Y-66250000D01*
X121000000Y-66500000D02*
X120750000Y-66250000D01*
X120750000Y-67250000D02*
X121000000Y-67000000D01*
X120200000Y-68150000D02*
X120200000Y-67350000D01*
X120300000Y-67250000D02*
X120750000Y-67250000D01*
X120200000Y-67350000D02*
X120300000Y-67250000D01*
X121000000Y-67000000D02*
X121000000Y-66500000D01*
X122000000Y-68000000D02*
X121000000Y-67000000D01*
X122000000Y-68750000D02*
X122000000Y-68000000D01*
X119625000Y-57500000D02*
X119750000Y-57500000D01*
X116000001Y-68249999D02*
X116000000Y-68250000D01*
X116000001Y-67250000D02*
X116000001Y-68249999D01*
X111900000Y-67500000D02*
X110500000Y-67500000D01*
X110500000Y-67500000D02*
X110250000Y-67250000D01*
X110250000Y-67250000D02*
X110250000Y-66750000D01*
X111200000Y-64500000D02*
X110000000Y-64500000D01*
X115000000Y-69750000D02*
X116000000Y-68750000D01*
X116000000Y-68750000D02*
X116000000Y-68000000D01*
X113750000Y-69750000D02*
X115000000Y-69750000D01*
X118300000Y-68150000D02*
X118300000Y-67300000D01*
X118300000Y-67300000D02*
X118250000Y-67250000D01*
X117500000Y-66500000D02*
X117750000Y-66250000D01*
X117750000Y-66250000D02*
X118500000Y-66250000D01*
X116000000Y-68000000D02*
X116750000Y-68000000D01*
X117625000Y-67125000D02*
X117500000Y-67000000D01*
X117750000Y-67250000D02*
X117625000Y-67125000D01*
X118000000Y-67250000D02*
X117500000Y-67250000D01*
X117500000Y-67250000D02*
X117625000Y-67125000D01*
X116750000Y-68000000D02*
X117500000Y-67250000D01*
X118250000Y-67250000D02*
X118000000Y-67250000D01*
X118000000Y-67250000D02*
X117750000Y-67250000D01*
X117500000Y-66750000D02*
X117500000Y-67250000D01*
X117500000Y-67000000D02*
X117500000Y-66750000D01*
X117500000Y-66750000D02*
X117500000Y-66500000D01*
X114250000Y-72900000D02*
X114250000Y-72000000D01*
X114250000Y-72000000D02*
X114000000Y-71750000D01*
X116150000Y-71500000D02*
X114750000Y-71500000D01*
X116250000Y-71600000D02*
X116150000Y-71500000D01*
X116250000Y-72250000D02*
X116250000Y-71600000D01*
X114000000Y-71750000D02*
X114500000Y-71750000D01*
X114500000Y-71750000D02*
X114250000Y-72000000D01*
X114750000Y-71500000D02*
X114500000Y-71750000D01*
X125797127Y-93500000D02*
X127000000Y-93500000D01*
X127000000Y-93500000D02*
X127750000Y-92750000D01*
X128000000Y-92750000D02*
X128750000Y-92750000D01*
X127750000Y-92750000D02*
X128000000Y-92750000D01*
X114000000Y-71750000D02*
X113750000Y-71750000D01*
X105250000Y-72000000D02*
X105250000Y-72000000D01*
X105250000Y-72000000D02*
X105250000Y-72000000D01*
X105050000Y-72200000D02*
X105250000Y-72000000D01*
X105050000Y-73250000D02*
X105050000Y-72200000D01*
X108297127Y-77702873D02*
X108297127Y-79250000D01*
X109976437Y-76023563D02*
X108297127Y-77702873D01*
X111226437Y-76023563D02*
X109976437Y-76023563D01*
X112250000Y-75000000D02*
X111226437Y-76023563D01*
X127500000Y-85500000D02*
X127899999Y-85899999D01*
X127899999Y-85899999D02*
X128250000Y-86250000D01*
X128250000Y-86250000D02*
X128250000Y-90000000D01*
X112875000Y-98750000D02*
X113500000Y-98750000D01*
X113750000Y-99000000D02*
X113500000Y-98750000D01*
X113750000Y-99250000D02*
X113750000Y-99000000D01*
X108297127Y-97547127D02*
X110000000Y-99250000D01*
X108297127Y-96250000D02*
X108297127Y-97547127D01*
X123700000Y-57250000D02*
X123800000Y-57150000D01*
X122500000Y-57250000D02*
X123700000Y-57250000D01*
X120000000Y-57250000D02*
X119750000Y-57500000D01*
X123700000Y-63250000D02*
X123800000Y-63350000D01*
X122500000Y-63250000D02*
X123700000Y-63250000D01*
X123800000Y-63350000D02*
X124650000Y-63350000D01*
X124650000Y-63350000D02*
X125000000Y-63000000D01*
X125000000Y-63000000D02*
X125000000Y-57500000D01*
X124650000Y-57150000D02*
X123800000Y-57150000D01*
X125000000Y-57500000D02*
X124650000Y-57150000D01*
X103250000Y-57000000D02*
X102000000Y-57000000D01*
X104000000Y-56250000D02*
X103250000Y-57000000D01*
X105500000Y-56250000D02*
X104000000Y-56250000D01*
X106250000Y-57000000D02*
X105500000Y-56250000D01*
X107500000Y-57000000D02*
X106250000Y-57000000D01*
X129250000Y-93250000D02*
X128750000Y-92750000D01*
X129250000Y-97935660D02*
X128500000Y-97185660D01*
X129250000Y-95250000D02*
X129250000Y-94250000D01*
X129250000Y-98810660D02*
X129250000Y-97935660D01*
X129250000Y-94250000D02*
X129250000Y-93250000D01*
X128500000Y-96000000D02*
X129250000Y-95250000D01*
X128500000Y-97185660D02*
X128500000Y-96000000D01*
X129250000Y-79421002D02*
X128500000Y-78671002D01*
X129250000Y-80600000D02*
X129250000Y-81750000D01*
X129250000Y-77278998D02*
X129250000Y-76100000D01*
X128500000Y-78671002D02*
X128500000Y-78028998D01*
X129250000Y-80600000D02*
X129250000Y-79421002D01*
X128500000Y-78028998D02*
X129250000Y-77278998D01*
X129250000Y-81750000D02*
X128800000Y-82200000D01*
X114750000Y-59500000D02*
X116250000Y-59500000D01*
X116250000Y-59500000D02*
X116500000Y-59750000D01*
X116500000Y-60750000D02*
X116500000Y-60625000D01*
X116500000Y-59750000D02*
X116500000Y-60750000D01*
X116500000Y-61125000D02*
X116500000Y-60750000D01*
X117750000Y-58500000D02*
X116750000Y-57500000D01*
X118250000Y-59000000D02*
X117750000Y-58500000D01*
X120750000Y-59000000D02*
X118250000Y-59000000D01*
X121500000Y-58250000D02*
X120750000Y-59000000D01*
X121750000Y-57250000D02*
X121500000Y-57500000D01*
X121500000Y-57500000D02*
X121500000Y-58250000D01*
X122500000Y-57250000D02*
X121750000Y-57250000D01*
X121250000Y-62500000D02*
X121250000Y-63000000D01*
X121500000Y-63250000D02*
X122250000Y-63250000D01*
X121250000Y-63000000D02*
X121500000Y-63250000D01*
X122500000Y-63250000D02*
X122250000Y-63250000D01*
X102000000Y-73000000D02*
X102000000Y-73375000D01*
X102000000Y-72250000D02*
X102000000Y-73000000D01*
X102750000Y-71500000D02*
X102000000Y-72250000D01*
X104750000Y-71500000D02*
X102750000Y-71500000D01*
X105250000Y-72000000D02*
X104750000Y-71500000D01*
X114750000Y-67350000D02*
X114600000Y-67500000D01*
X114600000Y-65450000D02*
X114750000Y-65600000D01*
X114600000Y-67500000D02*
X113750000Y-67500000D01*
X113800000Y-65450000D02*
X114600000Y-65450000D01*
X121000000Y-63500000D02*
X121000000Y-64000000D01*
X121000000Y-64000000D02*
X120750000Y-64250000D01*
X120350000Y-63250000D02*
X120750000Y-63250000D01*
X120750000Y-64250000D02*
X120250000Y-64250000D01*
X120150000Y-63050000D02*
X120350000Y-63250000D01*
X120750000Y-63250000D02*
X121000000Y-63500000D01*
X120150000Y-62250000D02*
X120150000Y-63050000D01*
X120750000Y-64250000D02*
X121000000Y-64500000D01*
X121000000Y-64500000D02*
X121000000Y-64750000D01*
X121000000Y-64750000D02*
X121000000Y-65000000D01*
X121000000Y-65000000D02*
X120750000Y-65250000D01*
X121000000Y-64000000D02*
X121000000Y-64500000D01*
X117250000Y-66000000D02*
X118000000Y-65250000D01*
X120750000Y-65250000D02*
X118000000Y-65250000D01*
X114750000Y-66250000D02*
X115000000Y-66000000D01*
X115000000Y-66000000D02*
X117250000Y-66000000D01*
X114750000Y-66000000D02*
X115000000Y-66000000D01*
X114750000Y-66000000D02*
X114750000Y-66250000D01*
X114750000Y-66250000D02*
X114750000Y-67350000D01*
X114750000Y-65750000D02*
X115000000Y-66000000D01*
X114750000Y-65600000D02*
X114750000Y-65750000D01*
X114750000Y-65750000D02*
X114750000Y-66000000D01*
D36*
X117775010Y-55525010D02*
X119750000Y-57500000D01*
X111624990Y-55525010D02*
X117775010Y-55525010D01*
X111500000Y-55650000D02*
X111624990Y-55525010D01*
X111500000Y-56750000D02*
X111500000Y-55650000D01*
D35*
X118250000Y-63050000D02*
X117750000Y-63550000D01*
X118250000Y-62250000D02*
X118250000Y-63050000D01*
X118000000Y-64250000D02*
X118250000Y-64250000D01*
X116500000Y-62875000D02*
X116500000Y-63500000D01*
X116500000Y-63500000D02*
X116750000Y-63750000D01*
X116750000Y-63750000D02*
X117750000Y-63750000D01*
X117750000Y-63550000D02*
X117750000Y-63750000D01*
X117750000Y-64000000D02*
X117750000Y-63750000D01*
X118000000Y-64250000D02*
X117750000Y-64000000D01*
X118500000Y-64250000D02*
X118000000Y-64250000D01*
X102750000Y-68750000D02*
X102500000Y-68500000D01*
X103650000Y-68750000D02*
X102750000Y-68750000D01*
X108000000Y-75000000D02*
X108000000Y-74625000D01*
X108000000Y-74499999D02*
X108000000Y-75000000D01*
X109200000Y-74649999D02*
X110000000Y-74650000D01*
X108799999Y-75050000D02*
X109200000Y-74649999D01*
X108600000Y-75249999D02*
X108799999Y-75050000D01*
X108000000Y-74500000D02*
X108000000Y-75000000D01*
X108250000Y-75599999D02*
X108600000Y-75249999D01*
X108000000Y-75349999D02*
X108250000Y-75599999D01*
X108000000Y-74500000D02*
X108000000Y-75349999D01*
X108250000Y-76000000D02*
X108250000Y-75599999D01*
X107750000Y-77250000D02*
X108250000Y-76750000D01*
X102500000Y-67750000D02*
X103250000Y-67000000D01*
X102500000Y-68500000D02*
X102500000Y-67750000D01*
X108250000Y-76750000D02*
X108250000Y-76500000D01*
X108250000Y-76500000D02*
X108250000Y-76000000D01*
X102000000Y-75750000D02*
X101000000Y-76750000D01*
X102000000Y-75750000D02*
X102000000Y-75500000D01*
X102000000Y-75125000D02*
X102000000Y-75750000D01*
X106000000Y-76650000D02*
X105400000Y-77250000D01*
X106000000Y-75850000D02*
X106000000Y-76650000D01*
X105400000Y-77250000D02*
X102974694Y-77250000D01*
X102974694Y-77250000D02*
X102737347Y-77012653D01*
X101000000Y-77315685D02*
X101000000Y-76750000D01*
X101934315Y-78250000D02*
X101000000Y-77315685D01*
X106750000Y-78250000D02*
X101934315Y-78250000D01*
X108250000Y-76750000D02*
X106750000Y-78250000D01*
X100750000Y-76500000D02*
X100750000Y-70250000D01*
X101000000Y-76750000D02*
X100750000Y-76500000D01*
X102750000Y-68750000D02*
X102250000Y-68750000D01*
X100750000Y-70250000D02*
X102250000Y-68750000D01*
X102250000Y-68750000D02*
X102500000Y-68500000D01*
X114050000Y-75750000D02*
X114250000Y-75550000D01*
X114000000Y-75750000D02*
X114050000Y-75750000D01*
X114000000Y-75750000D02*
X113500000Y-75750000D01*
X111000000Y-71750000D02*
X111000000Y-71750000D01*
X112676998Y-71750000D02*
X113250000Y-72323002D01*
X112500000Y-71750000D02*
X112676998Y-71750000D01*
X112500000Y-71750000D02*
X111000000Y-71750000D01*
X113500000Y-75750000D02*
X113250000Y-75500000D01*
X113050000Y-73700000D02*
X113250000Y-73500000D01*
X112200000Y-73700000D02*
X113050000Y-73700000D01*
X113250000Y-72323002D02*
X113250000Y-73500000D01*
X113250000Y-73900000D02*
X113050000Y-73700000D01*
X113250000Y-74250000D02*
X113250000Y-73900000D01*
X113250000Y-74250000D02*
X113250000Y-75250000D01*
X113250000Y-73500000D02*
X113250000Y-74250000D01*
X118250000Y-99250000D02*
X118750000Y-98750000D01*
X119250000Y-98750000D02*
X118750000Y-98750000D01*
X113250000Y-75500000D02*
X113250000Y-75250000D01*
X115151692Y-99250000D02*
X114325846Y-98424154D01*
X116250000Y-99250000D02*
X115151692Y-99250000D01*
X116250000Y-99250000D02*
X118250000Y-99250000D01*
X109750000Y-98000000D02*
X110250000Y-98000000D01*
X110750000Y-98750000D02*
X110000000Y-98000000D01*
X111125000Y-98750000D02*
X110750000Y-98750000D01*
X109567127Y-97567127D02*
X110000000Y-98000000D01*
X109567127Y-96250000D02*
X109567127Y-97567127D01*
X116000000Y-77000000D02*
X116250000Y-76750000D01*
X115000000Y-77000000D02*
X116000000Y-77000000D01*
X116250000Y-75950000D02*
X116250000Y-76750000D01*
X114250000Y-75750000D02*
X114125000Y-75875000D01*
X114250000Y-74575000D02*
X114250000Y-75750000D01*
X114250000Y-76000000D02*
X114125000Y-75875000D01*
X114125000Y-75875000D02*
X114000000Y-75750000D01*
X114250000Y-76250000D02*
X115000000Y-77000000D01*
X114250000Y-75750000D02*
X114250000Y-76250000D01*
X123750000Y-74750000D02*
X124049990Y-74450010D01*
X123750000Y-75750000D02*
X123750000Y-74750000D01*
X125000000Y-74650020D02*
X124799990Y-74450010D01*
X125000000Y-75000000D02*
X125000000Y-74650020D01*
X124049990Y-74450010D02*
X124799990Y-74450010D01*
X121500000Y-97750000D02*
X122250000Y-98500000D01*
X117740008Y-98799990D02*
X118789998Y-97750000D01*
X115726988Y-98799990D02*
X117740008Y-98799990D01*
X110837127Y-96250000D02*
X110837127Y-97412873D01*
X110837127Y-97412873D02*
X111174254Y-97750000D01*
X118789998Y-97750000D02*
X121500000Y-97750000D01*
X111174254Y-97750000D02*
X113926998Y-97750000D01*
X113926998Y-97750000D02*
X113977845Y-97699153D01*
X113977845Y-97699153D02*
X114626151Y-97699153D01*
X122250000Y-98500000D02*
X123250000Y-98500000D01*
X114626151Y-97699153D02*
X115726988Y-98799990D01*
X112107127Y-77607127D02*
X112000000Y-77500000D01*
X112107127Y-79250000D02*
X112107127Y-77607127D01*
X113377127Y-77627127D02*
X113250000Y-77500000D01*
X113377127Y-79250000D02*
X113377127Y-77627127D01*
X119727127Y-78000000D02*
X119727127Y-79250000D01*
X119977127Y-77750000D02*
X119727127Y-78000000D01*
X120250000Y-77750000D02*
X119977127Y-77750000D01*
X121053922Y-76946078D02*
X120250000Y-77750000D01*
X121053922Y-72446078D02*
X121053922Y-76946078D01*
X122000000Y-71500000D02*
X121053922Y-72446078D01*
X122000000Y-70500000D02*
X122000000Y-71500000D01*
X126350000Y-74400000D02*
X126800000Y-74400000D01*
X123913580Y-73950010D02*
X125900010Y-73950010D01*
X123024999Y-74838591D02*
X123913580Y-73950010D01*
X123024999Y-77024999D02*
X123024999Y-74838591D01*
X125900010Y-73950010D02*
X126350000Y-74400000D01*
X123537127Y-77537127D02*
X123024999Y-77024999D01*
X123537127Y-79250000D02*
X123537127Y-77537127D01*
X117500000Y-72000000D02*
X117737347Y-71762653D01*
X117500000Y-76435002D02*
X117500000Y-72000000D01*
X116185002Y-77750000D02*
X117500000Y-76435002D01*
X114897127Y-77750000D02*
X116185002Y-77750000D01*
X114647127Y-79250000D02*
X114647127Y-78000000D01*
X114647127Y-78000000D02*
X114897127Y-77750000D01*
X127750000Y-76975000D02*
X127525000Y-77200000D01*
X127750000Y-76100000D02*
X127750000Y-76975000D01*
X127750000Y-79725000D02*
X127525000Y-79500000D01*
X127750000Y-80600000D02*
X127750000Y-79725000D01*
X127525000Y-79496002D02*
X126750000Y-78721002D01*
X127525000Y-79500000D02*
X127525000Y-79496002D01*
X126750000Y-78721002D02*
X126750000Y-77500000D01*
X127050000Y-77200000D02*
X126750000Y-77500000D01*
X127200000Y-77200000D02*
X127050000Y-77200000D01*
X127525000Y-77200000D02*
X127200000Y-77200000D01*
X125000000Y-77250000D02*
X125000000Y-76750000D01*
X125250000Y-77500000D02*
X125000000Y-77250000D01*
X126750000Y-77500000D02*
X125250000Y-77500000D01*
X124807127Y-79250000D02*
X124807127Y-77942873D01*
X125000000Y-77250000D02*
X125000000Y-77750000D01*
X125000000Y-77750000D02*
X125250000Y-77500000D01*
X124807127Y-77942873D02*
X125000000Y-77750000D01*
X121500000Y-98750000D02*
X122250000Y-99500000D01*
X121000000Y-98750000D02*
X121500000Y-98750000D01*
X122250000Y-99500000D02*
X125500000Y-99500000D01*
X125500000Y-99500000D02*
X125750000Y-99250000D01*
X125750000Y-99250000D02*
X125750000Y-98750000D01*
X125750000Y-98750000D02*
X125500000Y-98500000D01*
X125500000Y-98500000D02*
X125000000Y-98500000D01*
X126500000Y-98250000D02*
X126500000Y-98500000D01*
X126937500Y-95312500D02*
X126500000Y-95750000D01*
X127750000Y-95125000D02*
X127562500Y-95312500D01*
X127750000Y-94250000D02*
X127750000Y-95125000D01*
X126500000Y-95750000D02*
X126500000Y-98250000D01*
X126500000Y-98500000D02*
X126750000Y-98750000D01*
X126750000Y-98750000D02*
X127750000Y-98750000D01*
X127562500Y-95312500D02*
X126937500Y-95312500D01*
X126250000Y-98750000D02*
X126750000Y-98750000D01*
X126500000Y-98500000D02*
X126250000Y-98750000D01*
X126250000Y-98750000D02*
X125750000Y-98750000D01*
X123350000Y-59000000D02*
X123800000Y-59000000D01*
X123100000Y-58750000D02*
X123350000Y-59000000D01*
X122500000Y-58750000D02*
X123100000Y-58750000D01*
X123350000Y-61500000D02*
X123800000Y-61500000D01*
X123100000Y-61750000D02*
X123350000Y-61500000D01*
X122500000Y-61750000D02*
X123100000Y-61750000D01*
X119200000Y-60050000D02*
X121300000Y-60050000D01*
X121300000Y-60050000D02*
X121500000Y-60250000D01*
X121500000Y-59850000D02*
X121300000Y-60050000D01*
X121500000Y-60250000D02*
X121500000Y-59750000D01*
X121500000Y-59750000D02*
X121500000Y-59850000D01*
X121500000Y-59250000D02*
X122000000Y-58750000D01*
X122000000Y-58750000D02*
X122500000Y-58750000D01*
X121500000Y-59750000D02*
X121500000Y-59250000D01*
X122000000Y-61750000D02*
X122500000Y-61750000D01*
X121500000Y-61250000D02*
X122000000Y-61750000D01*
X121500000Y-60250000D02*
X121500000Y-61250000D01*
X125500000Y-66749999D02*
X125500000Y-66000000D01*
X125500000Y-66000000D02*
X125750000Y-65750000D01*
X127250000Y-65750000D02*
X128250000Y-66750000D01*
X125750000Y-65750000D02*
X127250000Y-65750000D01*
X129200000Y-67700000D02*
X128250000Y-66750000D01*
X129200000Y-74250000D02*
X129200000Y-67700000D01*
X129050000Y-74400000D02*
X129200000Y-74250000D01*
X128550000Y-74400000D02*
X129050000Y-74400000D01*
X102000000Y-60250000D02*
X107500000Y-60250000D01*
X102000000Y-63750000D02*
X102000000Y-65000000D01*
X102000000Y-65000000D02*
X102250000Y-65250000D01*
X102250000Y-65250000D02*
X107250000Y-65250000D01*
X107250000Y-65250000D02*
X107500000Y-65000000D01*
X107500000Y-65000000D02*
X107500000Y-63750000D01*
X109250000Y-62750000D02*
X109500000Y-62500000D01*
X109450000Y-65450000D02*
X109250000Y-65250000D01*
X109450000Y-65450000D02*
X109450000Y-65550000D01*
X109450000Y-65550000D02*
X109250000Y-65750000D01*
X109250000Y-65750000D02*
X109550000Y-65450000D01*
X109550000Y-65450000D02*
X109450000Y-65450000D01*
X111200000Y-65450000D02*
X109550000Y-65450000D01*
X109250000Y-64750000D02*
X109250000Y-65150000D01*
X109250000Y-65150000D02*
X109550000Y-65450000D01*
X109250000Y-65250000D02*
X109250000Y-64750000D01*
X109250000Y-64750000D02*
X109250000Y-62750000D01*
X109250000Y-65750000D02*
X109250000Y-65250000D01*
X105850000Y-67800000D02*
X106650000Y-67800000D01*
X110250000Y-69000000D02*
X111000000Y-69750000D01*
X110250000Y-67886410D02*
X110250000Y-69000000D01*
X109250000Y-66886410D02*
X110250000Y-67886410D01*
X111000000Y-69750000D02*
X111750000Y-69750000D01*
X109250000Y-65750000D02*
X109250000Y-66886410D01*
X106650000Y-67800000D02*
X107200000Y-67800000D01*
X107200000Y-67800000D02*
X107750000Y-67250000D01*
X108750000Y-67500000D02*
X108750000Y-67750000D01*
X108886410Y-67250000D02*
X109250000Y-66886410D01*
X108500000Y-67250000D02*
X108886410Y-67250000D01*
X108750000Y-67386410D02*
X108886410Y-67250000D01*
X108750000Y-67500000D02*
X108750000Y-67386410D01*
X108613590Y-67250000D02*
X108750000Y-67386410D01*
X108250000Y-67250000D02*
X108613590Y-67250000D01*
X107750000Y-67250000D02*
X108250000Y-67250000D01*
X108250000Y-67250000D02*
X108500000Y-67250000D01*
X111500000Y-62250000D02*
X111250000Y-62500000D01*
X111500000Y-61250000D02*
X111500000Y-62250000D01*
X109500000Y-62500000D02*
X111250000Y-62500000D01*
X103250000Y-72500000D02*
X103699989Y-72050011D01*
X104100000Y-73250000D02*
X104100000Y-72150011D01*
X104000000Y-72050011D02*
X103699989Y-72050011D01*
X104100000Y-72150011D02*
X104000000Y-72050011D01*
X117187127Y-96250000D02*
X117187127Y-97937127D01*
X117187127Y-97937127D02*
X117250000Y-98000000D01*
X128250000Y-84500000D02*
X127500000Y-84500000D01*
X128750000Y-85000000D02*
X128250000Y-84500000D01*
X128750000Y-90250000D02*
X128750000Y-85000000D01*
X127500000Y-91500000D02*
X128750000Y-90250000D01*
X115917127Y-96250000D02*
X115917127Y-97917127D01*
X115917127Y-97917127D02*
X116000000Y-98000000D01*
X127500000Y-86750000D02*
X127500000Y-90000000D01*
X107999999Y-72750000D02*
X108000000Y-72250000D01*
X110000000Y-72750000D02*
X109200001Y-72750000D01*
X108000000Y-72250000D02*
X107750000Y-72000000D01*
X108450002Y-72000000D02*
X108725001Y-72274999D01*
X109200001Y-72750000D02*
X108725001Y-72274999D01*
X108000000Y-72250000D02*
X108250000Y-72000000D01*
X107750000Y-72000000D02*
X108250000Y-72000000D01*
X108250000Y-72000000D02*
X108450002Y-72000000D01*
X107500000Y-72000000D02*
X107750000Y-72000000D01*
X107250000Y-72000000D02*
X107500000Y-72000000D01*
X107000000Y-72250000D02*
X107250000Y-72000000D01*
X106450010Y-77799990D02*
X107000000Y-77250000D01*
X102451682Y-77799990D02*
X106450010Y-77799990D01*
X102012346Y-77360654D02*
X102451682Y-77799990D01*
X107000000Y-77250000D02*
X107000000Y-72250000D01*
X104100000Y-76100000D02*
X104100000Y-76650000D01*
X104000000Y-76750000D02*
X103500000Y-76750000D01*
X103500000Y-76750000D02*
X103024999Y-76274999D01*
X103024999Y-76274999D02*
X102401999Y-76274999D01*
X102012346Y-76664652D02*
X102012346Y-77360654D01*
X104100000Y-76650000D02*
X104000000Y-76750000D01*
X102401999Y-76274999D02*
X102012346Y-76664652D01*
X109750000Y-71500000D02*
X107200000Y-71500000D01*
X106000000Y-73500000D02*
X106000000Y-72250000D01*
X106750000Y-71500000D02*
X107200000Y-71500000D01*
X106000000Y-72250000D02*
X106750000Y-71500000D01*
X118500000Y-72250000D02*
X118500000Y-73500000D01*
X118750000Y-72000000D02*
X118500000Y-72250000D01*
X119750000Y-72000000D02*
X118750000Y-72000000D01*
X120000000Y-73500000D02*
X120000000Y-72250000D01*
X120000000Y-72250000D02*
X119750000Y-72000000D01*
X118500000Y-77100000D02*
X118500000Y-76000000D01*
X118350000Y-77250000D02*
X118500000Y-77100000D01*
X117937127Y-77250000D02*
X118350000Y-77250000D01*
X117187127Y-78000000D02*
X117937127Y-77250000D01*
X117187127Y-79250000D02*
X117187127Y-78000000D01*
X120000000Y-77100000D02*
X120000000Y-76000000D01*
X119850000Y-77250000D02*
X120000000Y-77100000D01*
X119207127Y-77250000D02*
X119850000Y-77250000D01*
X118457127Y-78000000D02*
X119207127Y-77250000D01*
X118457127Y-79250000D02*
X118457127Y-78000000D01*
X124000000Y-71000000D02*
X124625000Y-71000000D01*
X121750000Y-73250000D02*
X124000000Y-71000000D01*
X121750000Y-77250000D02*
X121750000Y-73250000D01*
X120997127Y-78002873D02*
X121750000Y-77250000D01*
X120997127Y-79250000D02*
X120997127Y-78002873D01*
X127000000Y-71000000D02*
X128000000Y-70000000D01*
X126375000Y-71000000D02*
X127000000Y-71000000D01*
X125375000Y-73000000D02*
X126500000Y-73000000D01*
X127000000Y-72500000D02*
X128000000Y-72500000D01*
X126500000Y-73000000D02*
X127000000Y-72500000D01*
X122267127Y-79250000D02*
X122267127Y-73732873D01*
X123000000Y-73000000D02*
X123625000Y-73000000D01*
X122267127Y-73732873D02*
X123000000Y-73000000D01*
D37*
X112772127Y-86825000D02*
X112922127Y-86975000D01*
X114022127Y-86975000D01*
X114022127Y-86955000D01*
X114072127Y-86955000D01*
X114072127Y-86975000D01*
X115772127Y-86975000D01*
X115772127Y-86955000D01*
X115822127Y-86955000D01*
X115822127Y-86975000D01*
X117522127Y-86975000D01*
X117522127Y-86955000D01*
X117572127Y-86955000D01*
X117572127Y-86975000D01*
X117592127Y-86975000D01*
X117592127Y-87025000D01*
X117572127Y-87025000D01*
X117572127Y-88725000D01*
X117592127Y-88725000D01*
X117592127Y-88775000D01*
X117572127Y-88775000D01*
X117572127Y-90475000D01*
X117592127Y-90475000D01*
X117592127Y-90525000D01*
X117572127Y-90525000D01*
X117572127Y-90545000D01*
X117522127Y-90545000D01*
X117522127Y-90525000D01*
X115822127Y-90525000D01*
X115822127Y-90545000D01*
X115772127Y-90545000D01*
X115772127Y-90525000D01*
X114072127Y-90525000D01*
X114072127Y-90545000D01*
X114022127Y-90545000D01*
X114022127Y-90525000D01*
X112922127Y-90525000D01*
X112772127Y-90675000D01*
X112769369Y-91150000D01*
X111850000Y-91150000D01*
X111850000Y-89425000D01*
X112769224Y-89425000D01*
X112780809Y-89542621D01*
X112805798Y-89625000D01*
X112780809Y-89707379D01*
X112769224Y-89825000D01*
X112772127Y-90325000D01*
X112922127Y-90475000D01*
X114022127Y-90475000D01*
X114022127Y-88775000D01*
X114072127Y-88775000D01*
X114072127Y-90475000D01*
X115772127Y-90475000D01*
X115772127Y-88775000D01*
X115822127Y-88775000D01*
X115822127Y-90475000D01*
X117522127Y-90475000D01*
X117522127Y-88775000D01*
X115822127Y-88775000D01*
X115772127Y-88775000D01*
X114072127Y-88775000D01*
X114022127Y-88775000D01*
X112922127Y-88775000D01*
X112772127Y-88925000D01*
X112769224Y-89425000D01*
X111850000Y-89425000D01*
X111850000Y-87675000D01*
X112769224Y-87675000D01*
X112780809Y-87792621D01*
X112805798Y-87875000D01*
X112780809Y-87957379D01*
X112769224Y-88075000D01*
X112772127Y-88575000D01*
X112922127Y-88725000D01*
X114022127Y-88725000D01*
X114022127Y-87025000D01*
X114072127Y-87025000D01*
X114072127Y-88725000D01*
X115772127Y-88725000D01*
X115772127Y-87025000D01*
X115822127Y-87025000D01*
X115822127Y-88725000D01*
X117522127Y-88725000D01*
X117522127Y-87025000D01*
X115822127Y-87025000D01*
X115772127Y-87025000D01*
X114072127Y-87025000D01*
X114022127Y-87025000D01*
X112922127Y-87025000D01*
X112772127Y-87175000D01*
X112769224Y-87675000D01*
X111850000Y-87675000D01*
X111850000Y-86350000D01*
X112769369Y-86350000D01*
X112772127Y-86825000D01*
G04 #@! TA.AperFunction,Conductor*
D38*
G36*
X112772127Y-86825000D02*
G01*
X112922127Y-86975000D01*
X114022127Y-86975000D01*
X114022127Y-86955000D01*
X114072127Y-86955000D01*
X114072127Y-86975000D01*
X115772127Y-86975000D01*
X115772127Y-86955000D01*
X115822127Y-86955000D01*
X115822127Y-86975000D01*
X117522127Y-86975000D01*
X117522127Y-86955000D01*
X117572127Y-86955000D01*
X117572127Y-86975000D01*
X117592127Y-86975000D01*
X117592127Y-87025000D01*
X117572127Y-87025000D01*
X117572127Y-88725000D01*
X117592127Y-88725000D01*
X117592127Y-88775000D01*
X117572127Y-88775000D01*
X117572127Y-90475000D01*
X117592127Y-90475000D01*
X117592127Y-90525000D01*
X117572127Y-90525000D01*
X117572127Y-90545000D01*
X117522127Y-90545000D01*
X117522127Y-90525000D01*
X115822127Y-90525000D01*
X115822127Y-90545000D01*
X115772127Y-90545000D01*
X115772127Y-90525000D01*
X114072127Y-90525000D01*
X114072127Y-90545000D01*
X114022127Y-90545000D01*
X114022127Y-90525000D01*
X112922127Y-90525000D01*
X112772127Y-90675000D01*
X112769369Y-91150000D01*
X111850000Y-91150000D01*
X111850000Y-89425000D01*
X112769224Y-89425000D01*
X112780809Y-89542621D01*
X112805798Y-89625000D01*
X112780809Y-89707379D01*
X112769224Y-89825000D01*
X112772127Y-90325000D01*
X112922127Y-90475000D01*
X114022127Y-90475000D01*
X114022127Y-88775000D01*
X114072127Y-88775000D01*
X114072127Y-90475000D01*
X115772127Y-90475000D01*
X115772127Y-88775000D01*
X115822127Y-88775000D01*
X115822127Y-90475000D01*
X117522127Y-90475000D01*
X117522127Y-88775000D01*
X115822127Y-88775000D01*
X115772127Y-88775000D01*
X114072127Y-88775000D01*
X114022127Y-88775000D01*
X112922127Y-88775000D01*
X112772127Y-88925000D01*
X112769224Y-89425000D01*
X111850000Y-89425000D01*
X111850000Y-87675000D01*
X112769224Y-87675000D01*
X112780809Y-87792621D01*
X112805798Y-87875000D01*
X112780809Y-87957379D01*
X112769224Y-88075000D01*
X112772127Y-88575000D01*
X112922127Y-88725000D01*
X114022127Y-88725000D01*
X114022127Y-87025000D01*
X114072127Y-87025000D01*
X114072127Y-88725000D01*
X115772127Y-88725000D01*
X115772127Y-87025000D01*
X115822127Y-87025000D01*
X115822127Y-88725000D01*
X117522127Y-88725000D01*
X117522127Y-87025000D01*
X115822127Y-87025000D01*
X115772127Y-87025000D01*
X114072127Y-87025000D01*
X114022127Y-87025000D01*
X112922127Y-87025000D01*
X112772127Y-87175000D01*
X112769224Y-87675000D01*
X111850000Y-87675000D01*
X111850000Y-86350000D01*
X112769369Y-86350000D01*
X112772127Y-86825000D01*
G37*
G04 #@! TD.AperFunction*
D37*
X113181388Y-62855065D02*
X113115413Y-62875078D01*
X113054610Y-62907578D01*
X113001315Y-62951315D01*
X112957578Y-63004610D01*
X112925078Y-63065413D01*
X112905065Y-63131388D01*
X112898307Y-63200000D01*
X112898307Y-63900000D01*
X112905065Y-63968612D01*
X112925078Y-64034587D01*
X112957578Y-64095390D01*
X113001315Y-64148685D01*
X113054610Y-64192422D01*
X113115413Y-64224922D01*
X113181388Y-64244935D01*
X113250000Y-64251693D01*
X114350000Y-64251693D01*
X114418612Y-64244935D01*
X114484587Y-64224922D01*
X114545390Y-64192422D01*
X114598685Y-64148685D01*
X114642422Y-64095390D01*
X114674922Y-64034587D01*
X114677830Y-64025000D01*
X115150000Y-64025000D01*
X115150000Y-64731879D01*
X115126316Y-64751315D01*
X115082579Y-64804610D01*
X115050079Y-64865413D01*
X115030066Y-64931388D01*
X115023308Y-65000000D01*
X115023308Y-65201558D01*
X114952384Y-65130634D01*
X114937501Y-65112499D01*
X114865173Y-65053141D01*
X114782654Y-65009034D01*
X114693116Y-64981873D01*
X114679508Y-64980533D01*
X114674922Y-64965413D01*
X114642422Y-64904610D01*
X114598685Y-64851315D01*
X114545390Y-64807578D01*
X114484587Y-64775078D01*
X114418612Y-64755065D01*
X114350000Y-64748307D01*
X113250000Y-64748307D01*
X113181388Y-64755065D01*
X113115413Y-64775078D01*
X113054610Y-64807578D01*
X113001315Y-64851315D01*
X112957578Y-64904610D01*
X112925078Y-64965413D01*
X112905065Y-65031388D01*
X112898307Y-65100000D01*
X112898307Y-65800000D01*
X112905065Y-65868612D01*
X112925078Y-65934587D01*
X112957578Y-65995390D01*
X113001315Y-66048685D01*
X113054610Y-66092422D01*
X113115413Y-66124922D01*
X113181388Y-66144935D01*
X113232811Y-66150000D01*
X111767199Y-66150000D01*
X111818612Y-66144936D01*
X111884587Y-66124923D01*
X111945391Y-66092423D01*
X111998685Y-66048685D01*
X112042423Y-65995391D01*
X112074923Y-65934587D01*
X112094936Y-65868612D01*
X112101694Y-65800000D01*
X112100000Y-65562500D01*
X112012500Y-65475000D01*
X111225000Y-65475000D01*
X111225000Y-65495000D01*
X111175000Y-65495000D01*
X111175000Y-65475000D01*
X111155000Y-65475000D01*
X111155000Y-65425000D01*
X111175000Y-65425000D01*
X111175000Y-65405000D01*
X111225000Y-65405000D01*
X111225000Y-65425000D01*
X112012500Y-65425000D01*
X112100000Y-65337500D01*
X112101694Y-65100000D01*
X112094936Y-65031388D01*
X112077831Y-64974998D01*
X112094935Y-64918612D01*
X112101693Y-64850000D01*
X112101693Y-64150000D01*
X112094935Y-64081388D01*
X112077830Y-64025000D01*
X112094935Y-63968612D01*
X112101693Y-63900000D01*
X112101693Y-63200000D01*
X112094935Y-63131388D01*
X112074922Y-63065413D01*
X112042422Y-63004610D01*
X111998685Y-62951315D01*
X111945390Y-62907578D01*
X111884587Y-62875078D01*
X111818612Y-62855065D01*
X111767189Y-62850000D01*
X113232811Y-62850000D01*
X113181388Y-62855065D01*
G04 #@! TA.AperFunction,Conductor*
D38*
G36*
X113181388Y-62855065D02*
G01*
X113115413Y-62875078D01*
X113054610Y-62907578D01*
X113001315Y-62951315D01*
X112957578Y-63004610D01*
X112925078Y-63065413D01*
X112905065Y-63131388D01*
X112898307Y-63200000D01*
X112898307Y-63900000D01*
X112905065Y-63968612D01*
X112925078Y-64034587D01*
X112957578Y-64095390D01*
X113001315Y-64148685D01*
X113054610Y-64192422D01*
X113115413Y-64224922D01*
X113181388Y-64244935D01*
X113250000Y-64251693D01*
X114350000Y-64251693D01*
X114418612Y-64244935D01*
X114484587Y-64224922D01*
X114545390Y-64192422D01*
X114598685Y-64148685D01*
X114642422Y-64095390D01*
X114674922Y-64034587D01*
X114677830Y-64025000D01*
X115150000Y-64025000D01*
X115150000Y-64731879D01*
X115126316Y-64751315D01*
X115082579Y-64804610D01*
X115050079Y-64865413D01*
X115030066Y-64931388D01*
X115023308Y-65000000D01*
X115023308Y-65201558D01*
X114952384Y-65130634D01*
X114937501Y-65112499D01*
X114865173Y-65053141D01*
X114782654Y-65009034D01*
X114693116Y-64981873D01*
X114679508Y-64980533D01*
X114674922Y-64965413D01*
X114642422Y-64904610D01*
X114598685Y-64851315D01*
X114545390Y-64807578D01*
X114484587Y-64775078D01*
X114418612Y-64755065D01*
X114350000Y-64748307D01*
X113250000Y-64748307D01*
X113181388Y-64755065D01*
X113115413Y-64775078D01*
X113054610Y-64807578D01*
X113001315Y-64851315D01*
X112957578Y-64904610D01*
X112925078Y-64965413D01*
X112905065Y-65031388D01*
X112898307Y-65100000D01*
X112898307Y-65800000D01*
X112905065Y-65868612D01*
X112925078Y-65934587D01*
X112957578Y-65995390D01*
X113001315Y-66048685D01*
X113054610Y-66092422D01*
X113115413Y-66124922D01*
X113181388Y-66144935D01*
X113232811Y-66150000D01*
X111767199Y-66150000D01*
X111818612Y-66144936D01*
X111884587Y-66124923D01*
X111945391Y-66092423D01*
X111998685Y-66048685D01*
X112042423Y-65995391D01*
X112074923Y-65934587D01*
X112094936Y-65868612D01*
X112101694Y-65800000D01*
X112100000Y-65562500D01*
X112012500Y-65475000D01*
X111225000Y-65475000D01*
X111225000Y-65495000D01*
X111175000Y-65495000D01*
X111175000Y-65475000D01*
X111155000Y-65475000D01*
X111155000Y-65425000D01*
X111175000Y-65425000D01*
X111175000Y-65405000D01*
X111225000Y-65405000D01*
X111225000Y-65425000D01*
X112012500Y-65425000D01*
X112100000Y-65337500D01*
X112101694Y-65100000D01*
X112094936Y-65031388D01*
X112077831Y-64974998D01*
X112094935Y-64918612D01*
X112101693Y-64850000D01*
X112101693Y-64150000D01*
X112094935Y-64081388D01*
X112077830Y-64025000D01*
X112094935Y-63968612D01*
X112101693Y-63900000D01*
X112101693Y-63200000D01*
X112094935Y-63131388D01*
X112074922Y-63065413D01*
X112042422Y-63004610D01*
X111998685Y-62951315D01*
X111945390Y-62907578D01*
X111884587Y-62875078D01*
X111818612Y-62855065D01*
X111767189Y-62850000D01*
X113232811Y-62850000D01*
X113181388Y-62855065D01*
G37*
G04 #@! TD.AperFunction*
M02*
