M48
; DRILL file {KiCad (5.1.2-1)-1} date воскресенье, 19 сентября 2021 г., 22:21:05
; FORMAT={3:3/ absolute / metric / keep zeros}
; #@! TF.CreationDate,2021-09-19T22:21:05+03:00
; #@! TF.GenerationSoftware,Kicad,Pcbnew,(5.1.2-1)-1
; #@! TF.FileFunction,Plated,1,2,PTH
FMAT,2
METRIC
T1C0.400
T2C0.600
T3C1.200
T4C1.500
%
G90
G05
T1
X102500Y-062000
X102500Y-068500
X103500Y-072250
X104250Y-062000
X108250Y-075000
X108250Y-097750
X109567Y-097817
X110000Y-063500
X110000Y-064500
X110250Y-066750
X112000Y-077500
X112250Y-087000
X112250Y-088750
X112250Y-090500
X113250Y-071750
X113250Y-077500
X113250Y-099250
X113750Y-098300
X115763Y-077500
X116000Y-068000
X117737Y-071763
X119000Y-072000
X120500Y-071250
X123500Y-076750
X123750Y-069500
X124250Y-073750
X124750Y-075500
X124750Y-077750
X126250Y-079250
X128750Y-092750
T2
X127600Y-096500
X129400Y-096500
T3
X116750Y-057500
X119750Y-057500
T4
X102000Y-057000
X102000Y-060250
X102000Y-063750
X104750Y-057750
X104750Y-063750
X107500Y-057000
X107500Y-060250
X107500Y-063750
X122500Y-057000
X122500Y-060250
X122500Y-063750
X125250Y-057750
X125250Y-063750
X128000Y-057000
X128000Y-060250
X128000Y-063750
T0
M30
