G04 #@! TF.GenerationSoftware,KiCad,Pcbnew,(5.1.2-1)-1*
G04 #@! TF.CreationDate,2021-09-19T22:20:58+03:00*
G04 #@! TF.ProjectId,ITR-1,4954522d-312e-46b6-9963-61645f706362,rev?*
G04 #@! TF.SameCoordinates,Original*
G04 #@! TF.FileFunction,Copper,L1,Top*
G04 #@! TF.FilePolarity,Positive*
%FSLAX46Y46*%
G04 Gerber Fmt 4.6, Leading zero omitted, Abs format (unit mm)*
G04 Created by KiCad (PCBNEW (5.1.2-1)-1) date 2021-09-19 22:20:58*
%MOMM*%
%LPD*%
G04 APERTURE LIST*
%ADD10C,0.200000*%
%ADD11R,0.750000X1.250000*%
%ADD12C,1.000000*%
%ADD13R,1.050000X1.100000*%
%ADD14R,2.000000X4.000000*%
%ADD15R,2.000000X1.500000*%
%ADD16R,1.250000X0.500000*%
%ADD17R,0.500000X1.250000*%
%ADD18R,0.800000X1.500000*%
%ADD19C,2.000000*%
%ADD20R,4.000000X1.500000*%
%ADD21R,2.000000X2.000000*%
%ADD22R,1.500000X0.800000*%
%ADD23R,0.800000X1.100000*%
%ADD24R,1.100000X0.800000*%
%ADD25R,1.200000X1.500000*%
%ADD26R,1.100000X0.700000*%
%ADD27O,0.900000X2.000000*%
%ADD28R,0.900000X2.000000*%
%ADD29R,1.350000X1.350000*%
%ADD30R,2.000000X0.900000*%
%ADD31C,0.800000*%
%ADD32C,0.250000*%
%ADD33C,0.350000*%
G04 APERTURE END LIST*
D10*
X100742857Y-99361904D02*
X100742857Y-98561904D01*
X101009523Y-98561904D02*
X101466666Y-98561904D01*
X101238095Y-99361904D02*
X101238095Y-98561904D01*
X102190476Y-99361904D02*
X101923809Y-98980952D01*
X101733333Y-99361904D02*
X101733333Y-98561904D01*
X102038095Y-98561904D01*
X102114285Y-98600000D01*
X102152380Y-98638095D01*
X102190476Y-98714285D01*
X102190476Y-98828571D01*
X102152380Y-98904761D01*
X102114285Y-98942857D01*
X102038095Y-98980952D01*
X101733333Y-98980952D01*
X102533333Y-99057142D02*
X103142857Y-99057142D01*
X103942857Y-99361904D02*
X103485714Y-99361904D01*
X103714285Y-99361904D02*
X103714285Y-98561904D01*
X103638095Y-98676190D01*
X103561904Y-98752380D01*
X103485714Y-98790476D01*
X104285714Y-99057142D02*
X104895238Y-99057142D01*
X105428571Y-98561904D02*
X105504761Y-98561904D01*
X105580952Y-98600000D01*
X105619047Y-98638095D01*
X105657142Y-98714285D01*
X105695238Y-98866666D01*
X105695238Y-99057142D01*
X105657142Y-99209523D01*
X105619047Y-99285714D01*
X105580952Y-99323809D01*
X105504761Y-99361904D01*
X105428571Y-99361904D01*
X105352380Y-99323809D01*
X105314285Y-99285714D01*
X105276190Y-99209523D01*
X105238095Y-99057142D01*
X105238095Y-98866666D01*
X105276190Y-98714285D01*
X105314285Y-98638095D01*
X105352380Y-98600000D01*
X105428571Y-98561904D01*
X106038095Y-99361904D02*
X106038095Y-98561904D01*
X106495238Y-99361904D01*
X106495238Y-98561904D01*
X106914285Y-99361904D02*
X107066666Y-99361904D01*
X107142857Y-99323809D01*
X107180952Y-99285714D01*
X107257142Y-99171428D01*
X107295238Y-99019047D01*
X107295238Y-98714285D01*
X107257142Y-98638095D01*
X107219047Y-98600000D01*
X107142857Y-98561904D01*
X106990476Y-98561904D01*
X106914285Y-98600000D01*
X106876190Y-98638095D01*
X106838095Y-98714285D01*
X106838095Y-98904761D01*
X106876190Y-98980952D01*
X106914285Y-99019047D01*
X106990476Y-99057142D01*
X107142857Y-99057142D01*
X107219047Y-99019047D01*
X107257142Y-98980952D01*
X107295238Y-98904761D01*
D11*
X127750000Y-94250000D03*
X127750000Y-98750000D03*
X129250000Y-94250000D03*
X129250000Y-98750000D03*
D12*
X129400000Y-96500000D03*
X127600000Y-96500000D03*
D13*
X118500000Y-75550000D03*
X118500000Y-73950000D03*
D14*
X111500000Y-74000000D03*
D15*
X105250000Y-74000000D03*
X105250000Y-71750000D03*
X105250000Y-76250000D03*
D16*
X114250000Y-72825000D03*
X114250000Y-74575000D03*
D17*
X112425000Y-98750000D03*
X110675000Y-98750000D03*
D18*
X126750000Y-72500000D03*
X123050000Y-72500000D03*
D17*
X127625000Y-74500000D03*
X125875000Y-74500000D03*
D16*
X128765152Y-70300000D03*
X128765152Y-72050000D03*
D19*
X116750000Y-57500000D03*
X119750000Y-57500000D03*
D20*
X112500000Y-61250000D03*
X112500000Y-56750000D03*
D19*
X125250000Y-57750000D03*
X125250000Y-63750000D03*
D21*
X128000000Y-57000000D03*
X128000000Y-60250000D03*
X128000000Y-63750000D03*
X122500000Y-57000000D03*
X122500000Y-60250000D03*
X122500000Y-63750000D03*
D19*
X104750000Y-57750000D03*
X104750000Y-63750000D03*
D21*
X107500000Y-57000000D03*
X107500000Y-60250000D03*
X107500000Y-63750000D03*
X102000000Y-57000000D03*
X102000000Y-60250000D03*
X102000000Y-63750000D03*
D22*
X116250000Y-75950000D03*
X116250000Y-72250000D03*
D17*
X115500000Y-98750000D03*
X117250000Y-98750000D03*
X119500000Y-98500000D03*
X121250000Y-98500000D03*
X127625000Y-77000000D03*
X125875000Y-77000000D03*
D16*
X120500000Y-75375000D03*
X120500000Y-73625000D03*
D13*
X103250000Y-75250000D03*
X103250000Y-73650000D03*
D23*
X119200000Y-60050000D03*
X120150000Y-62250000D03*
X118250000Y-62250000D03*
D24*
X126950000Y-69500000D03*
X124750000Y-70450000D03*
X124750000Y-68550000D03*
D16*
X116000001Y-67000000D03*
X116000001Y-65250000D03*
D17*
X118500000Y-64250000D03*
X120250000Y-64250000D03*
D16*
X116500000Y-61125000D03*
X116500000Y-62875000D03*
D25*
X111900000Y-69750000D03*
X113750000Y-69750000D03*
X113750000Y-67500000D03*
X111900000Y-67500000D03*
D26*
X111200000Y-63550000D03*
X111200000Y-64500000D03*
X111200000Y-65450000D03*
X113800000Y-65450000D03*
X113800000Y-63550000D03*
D23*
X119250000Y-70350000D03*
X118300000Y-68150000D03*
X120200000Y-68150000D03*
D24*
X103650000Y-68750000D03*
X105850000Y-67800000D03*
X105850000Y-69700000D03*
D16*
X122000000Y-68750000D03*
X122000000Y-70500000D03*
D17*
X118500000Y-66250000D03*
X120250000Y-66250000D03*
D16*
X108750000Y-69625000D03*
X108750000Y-67875000D03*
D27*
X108297127Y-96250000D03*
D28*
X108297127Y-79250000D03*
X109567127Y-96250000D03*
X109567127Y-79250000D03*
X110837127Y-96250000D03*
X110837127Y-79250000D03*
X112107127Y-96250000D03*
X112107127Y-79250000D03*
X113377127Y-96250000D03*
X113377127Y-79250000D03*
X114647127Y-96250000D03*
X114647127Y-79250000D03*
X115917127Y-96250000D03*
X115917127Y-79250000D03*
X117187127Y-96250000D03*
X117187127Y-79250000D03*
X118457127Y-96250000D03*
X118457127Y-79250000D03*
X119727127Y-96250000D03*
X119727127Y-79250000D03*
X120997127Y-96250000D03*
X120997127Y-79250000D03*
X122267127Y-96250000D03*
X122267127Y-79250000D03*
X123537127Y-96250000D03*
X123537127Y-79250000D03*
D29*
X115797127Y-88750000D03*
X114047127Y-88750000D03*
X117547127Y-88750000D03*
X117547127Y-87000000D03*
X114047127Y-87000000D03*
X115797127Y-87000000D03*
X117547127Y-90500000D03*
X114047127Y-90500000D03*
X115797127Y-90500000D03*
D28*
X124807127Y-79250000D03*
D30*
X125797127Y-82070000D03*
X125797127Y-83340000D03*
X125797127Y-93500000D03*
X125797127Y-92230000D03*
D31*
X110000000Y-63500000D03*
X120500000Y-71250000D03*
X123750000Y-69500000D03*
X112250000Y-90500001D03*
X112250000Y-88749999D03*
X112250000Y-87000000D03*
X116000000Y-68000000D03*
X110250000Y-66750000D03*
X110000000Y-64500000D03*
X103500000Y-72250000D03*
X124250000Y-73750000D03*
X108250000Y-97750000D03*
X113250000Y-71750000D03*
X113250000Y-99250000D03*
X128750000Y-92750000D03*
X108250000Y-75000000D03*
X119000000Y-72000000D03*
X102500000Y-68500000D03*
X113750000Y-98300001D03*
X109567127Y-97817127D03*
X115762653Y-77500000D03*
X126250000Y-79250000D03*
X112000000Y-77500000D03*
X113250000Y-77500000D03*
X117737347Y-71762653D03*
X102500000Y-62000000D03*
X104250000Y-62000000D03*
X124750000Y-77750000D03*
X124750000Y-75500000D03*
X123500000Y-76750000D03*
D32*
X113800000Y-63550000D02*
X115800000Y-63550000D01*
X115800000Y-63550000D02*
X116000000Y-63750000D01*
X116000000Y-63750000D02*
X116000000Y-65250000D01*
X110050000Y-63550000D02*
X110000000Y-63500000D01*
X111200000Y-63550000D02*
X110050000Y-63550000D01*
X118000000Y-71000000D02*
X118250000Y-71250000D01*
X118250000Y-71250000D02*
X119000000Y-71250000D01*
X119000000Y-71250000D02*
X119250000Y-71000000D01*
X119250000Y-71000000D02*
X119250000Y-70250000D01*
X119250000Y-71000000D02*
X119500000Y-71250000D01*
X119500000Y-71250000D02*
X120500000Y-71250000D01*
X119000000Y-71250000D02*
X119500000Y-71250000D01*
X124750000Y-70450000D02*
X123950000Y-70450000D01*
X123950000Y-70450000D02*
X123750000Y-70250000D01*
X123750000Y-70250000D02*
X123750000Y-69500000D01*
X123750000Y-69500000D02*
X123750000Y-69000000D01*
X123750000Y-69000000D02*
X123750000Y-68750000D01*
X123950000Y-68550000D02*
X123750000Y-68750000D01*
X124750000Y-68550000D02*
X123950000Y-68550000D01*
X108750000Y-70125000D02*
X108625000Y-70250000D01*
X108750000Y-69625000D02*
X108750000Y-70125000D01*
X108625000Y-70250000D02*
X108000000Y-70250000D01*
X108000000Y-70250000D02*
X107250000Y-70250000D01*
X106700000Y-69700000D02*
X106875000Y-69875000D01*
X105850000Y-69700000D02*
X106700000Y-69700000D01*
X106875000Y-69875000D02*
X106750000Y-69750000D01*
X107250000Y-70250000D02*
X106875000Y-69875000D01*
X110250000Y-70250000D02*
X111000000Y-71000000D01*
X111000000Y-71000000D02*
X118000000Y-71000000D01*
X108625000Y-70250000D02*
X109000000Y-70250000D01*
X108875000Y-70250000D02*
X108750000Y-70125000D01*
X109250000Y-70250000D02*
X108875000Y-70250000D01*
X109000000Y-70250000D02*
X109250000Y-70250000D01*
X109250000Y-70250000D02*
X110250000Y-70250000D01*
X120750000Y-66250000D02*
X120250000Y-66250000D01*
X121000000Y-66500000D02*
X120750000Y-66250000D01*
X120750000Y-67250000D02*
X121000000Y-67000000D01*
X120200000Y-68150000D02*
X120200000Y-67350000D01*
X120300000Y-67250000D02*
X120750000Y-67250000D01*
X120200000Y-67350000D02*
X120300000Y-67250000D01*
X121000000Y-67000000D02*
X121000000Y-66500000D01*
X122000000Y-68000000D02*
X121000000Y-67000000D01*
X122000000Y-68750000D02*
X122000000Y-68000000D01*
X122750000Y-65250000D02*
X127750000Y-65250000D01*
X128000000Y-65000000D02*
X128000000Y-63750000D01*
X122500000Y-63750000D02*
X122500000Y-65000000D01*
X127750000Y-65250000D02*
X128000000Y-65000000D01*
X122500000Y-65000000D02*
X122750000Y-65250000D01*
X116500000Y-60625000D02*
X119625000Y-57500000D01*
X116500000Y-61125000D02*
X116500000Y-60625000D01*
X119625000Y-57500000D02*
X119750000Y-57500000D01*
X116000001Y-68249999D02*
X116000000Y-68250000D01*
X116000001Y-67250000D02*
X116000001Y-68249999D01*
X111900000Y-67500000D02*
X110500000Y-67500000D01*
X110500000Y-67500000D02*
X110250000Y-67250000D01*
X110250000Y-67250000D02*
X110250000Y-66750000D01*
X111200000Y-64500000D02*
X110000000Y-64500000D01*
X115000000Y-69750000D02*
X116000000Y-68750000D01*
X116000000Y-68750000D02*
X116000000Y-68000000D01*
X113750000Y-69750000D02*
X115000000Y-69750000D01*
X118300000Y-68150000D02*
X118300000Y-67300000D01*
X118300000Y-67300000D02*
X118250000Y-67250000D01*
X117500000Y-66500000D02*
X117750000Y-66250000D01*
X117750000Y-66250000D02*
X118500000Y-66250000D01*
X116000000Y-68000000D02*
X116750000Y-68000000D01*
X117625000Y-67125000D02*
X117500000Y-67000000D01*
X117750000Y-67250000D02*
X117625000Y-67125000D01*
X118000000Y-67250000D02*
X117500000Y-67250000D01*
X117500000Y-67250000D02*
X117625000Y-67125000D01*
X116750000Y-68000000D02*
X117500000Y-67250000D01*
X118250000Y-67250000D02*
X118000000Y-67250000D01*
X118000000Y-67250000D02*
X117750000Y-67250000D01*
X117500000Y-66750000D02*
X117500000Y-67250000D01*
X117500000Y-67000000D02*
X117500000Y-66750000D01*
X117500000Y-66750000D02*
X117500000Y-66500000D01*
X114250000Y-72900000D02*
X114250000Y-72000000D01*
X114250000Y-72000000D02*
X114000000Y-71750000D01*
X116150000Y-71500000D02*
X114750000Y-71500000D01*
X116250000Y-71600000D02*
X116150000Y-71500000D01*
X116250000Y-72250000D02*
X116250000Y-71600000D01*
X114000000Y-71750000D02*
X114500000Y-71750000D01*
X114500000Y-71750000D02*
X114250000Y-72000000D01*
X114750000Y-71500000D02*
X114500000Y-71750000D01*
X122400000Y-72500000D02*
X122250000Y-72650000D01*
X123050000Y-72500000D02*
X122400000Y-72500000D01*
X122250000Y-72650000D02*
X122250000Y-73250000D01*
X122250000Y-73250000D02*
X122250000Y-73500000D01*
X122250000Y-73500000D02*
X122500000Y-73750000D01*
X122500000Y-73750000D02*
X124250000Y-73750000D01*
X108297127Y-97702873D02*
X108250000Y-97750000D01*
X108297127Y-96250000D02*
X108297127Y-97702873D01*
X114000000Y-71750000D02*
X113250000Y-71750000D01*
X129250000Y-97935660D02*
X128500000Y-97185660D01*
X129250000Y-98810660D02*
X129250000Y-97935660D01*
X128500000Y-97185660D02*
X128500000Y-96000000D01*
X128500000Y-96000000D02*
X129250000Y-95250000D01*
X129250000Y-95250000D02*
X129250000Y-94250000D01*
X125797127Y-93500000D02*
X127000000Y-93500000D01*
X127000000Y-93500000D02*
X127750000Y-92750000D01*
X104000000Y-71750000D02*
X103500000Y-72250000D01*
X105250000Y-71750000D02*
X104000000Y-71750000D01*
X103250000Y-72500000D02*
X103500000Y-72250000D01*
X103250000Y-73650000D02*
X103250000Y-72500000D01*
X108297127Y-75297127D02*
X108250000Y-75250000D01*
X108297127Y-79250000D02*
X108297127Y-76452873D01*
X108297127Y-76452873D02*
X108297127Y-75297127D01*
X108297127Y-75047127D02*
X108250000Y-75000000D01*
X108297127Y-76547127D02*
X108297127Y-75047127D01*
X108297127Y-79250000D02*
X108297127Y-76547127D01*
X118500000Y-72500000D02*
X119000000Y-72000000D01*
X118500000Y-73950000D02*
X118500000Y-72500000D01*
X129250000Y-93250000D02*
X128750000Y-92750000D01*
X129250000Y-94250000D02*
X129250000Y-93250000D01*
X128000000Y-92750000D02*
X128750000Y-92750000D01*
X127750000Y-92750000D02*
X128000000Y-92750000D01*
X113000000Y-98750000D02*
X113500000Y-99250000D01*
X112425000Y-98750000D02*
X113000000Y-98750000D01*
X113250000Y-99000000D02*
X113000000Y-98750000D01*
X113250000Y-99250000D02*
X113250000Y-99000000D01*
X114750000Y-67350000D02*
X114600000Y-67500000D01*
X114600000Y-65450000D02*
X114750000Y-65600000D01*
X114600000Y-67500000D02*
X113750000Y-67500000D01*
X113800000Y-65450000D02*
X114600000Y-65450000D01*
X121000000Y-63500000D02*
X121000000Y-64000000D01*
X121000000Y-64000000D02*
X120750000Y-64250000D01*
X120350000Y-63250000D02*
X120750000Y-63250000D01*
X120750000Y-64250000D02*
X120250000Y-64250000D01*
X120150000Y-63050000D02*
X120350000Y-63250000D01*
X120750000Y-63250000D02*
X121000000Y-63500000D01*
X120150000Y-62250000D02*
X120150000Y-63050000D01*
X120750000Y-64250000D02*
X121000000Y-64500000D01*
X121000000Y-64500000D02*
X121000000Y-64750000D01*
X121000000Y-64750000D02*
X121000000Y-65000000D01*
X121000000Y-65000000D02*
X120750000Y-65250000D01*
X121000000Y-64000000D02*
X121000000Y-64500000D01*
X117250000Y-66000000D02*
X118000000Y-65250000D01*
X120750000Y-65250000D02*
X118000000Y-65250000D01*
X114750000Y-66250000D02*
X115000000Y-66000000D01*
X115000000Y-66000000D02*
X117250000Y-66000000D01*
X114750000Y-66000000D02*
X115000000Y-66000000D01*
X114750000Y-66000000D02*
X114750000Y-66250000D01*
X114750000Y-66250000D02*
X114750000Y-67350000D01*
X114750000Y-65750000D02*
X115000000Y-66000000D01*
X114750000Y-65600000D02*
X114750000Y-65750000D01*
X114750000Y-65750000D02*
X114750000Y-66000000D01*
D33*
X112500000Y-55650000D02*
X112624990Y-55525010D01*
X112500000Y-56750000D02*
X112500000Y-55650000D01*
X112624990Y-55525010D02*
X114775010Y-55525010D01*
X114775010Y-55525010D02*
X116750000Y-57500000D01*
D32*
X118250000Y-63050000D02*
X117750000Y-63550000D01*
X118250000Y-62250000D02*
X118250000Y-63050000D01*
X118000000Y-64250000D02*
X118250000Y-64250000D01*
X116500000Y-62875000D02*
X116500000Y-63500000D01*
X116500000Y-63500000D02*
X116750000Y-63750000D01*
X116750000Y-63750000D02*
X117750000Y-63750000D01*
X117750000Y-63550000D02*
X117750000Y-63750000D01*
X117750000Y-64000000D02*
X117750000Y-63750000D01*
X118000000Y-64250000D02*
X117750000Y-64000000D01*
X118500000Y-64250000D02*
X118000000Y-64250000D01*
X102750000Y-68750000D02*
X102500000Y-68500000D01*
X103650000Y-68750000D02*
X102750000Y-68750000D01*
X101750000Y-69250000D02*
X102500000Y-68500000D01*
X103500000Y-76250000D02*
X103250000Y-76000000D01*
X105250000Y-76250000D02*
X103500000Y-76250000D01*
X103250000Y-76000000D02*
X103250000Y-75500000D01*
X102000000Y-76250000D02*
X101750000Y-76000000D01*
X102500000Y-76250000D02*
X102000000Y-76250000D01*
X103250000Y-76000000D02*
X103000000Y-76250000D01*
X101750000Y-76000000D02*
X101750000Y-69250000D01*
X103500000Y-76250000D02*
X103000000Y-76250000D01*
X103250000Y-76000000D02*
X103250000Y-75250000D01*
X102500000Y-76250000D02*
X103000000Y-76250000D01*
X105250000Y-74000000D02*
X111500000Y-74000000D01*
X113250000Y-75250000D02*
X113500000Y-75500000D01*
X113500000Y-75500000D02*
X113750000Y-75500000D01*
X113750000Y-75500000D02*
X114000000Y-75500000D01*
X114050000Y-75500000D02*
X114250000Y-75300000D01*
X114000000Y-75500000D02*
X114050000Y-75500000D01*
X114250000Y-75300000D02*
X114250000Y-74500000D01*
X114250000Y-75750000D02*
X114000000Y-75500000D01*
X114250000Y-75300000D02*
X114250000Y-75750000D01*
X111500000Y-74000000D02*
X112750000Y-74000000D01*
X112750000Y-74000000D02*
X113000000Y-74250000D01*
X113000000Y-75000000D02*
X113250000Y-75250000D01*
X113000000Y-74250000D02*
X113000000Y-75000000D01*
X109567127Y-96250000D02*
X109567127Y-97817127D01*
X109567127Y-98117127D02*
X109567127Y-97817127D01*
X109567127Y-98382812D02*
X109934315Y-98750000D01*
X109567127Y-97817127D02*
X109567127Y-98382812D01*
X109934315Y-98750000D02*
X110500000Y-98750000D01*
X116250000Y-77012653D02*
X115762653Y-77500000D01*
X116250000Y-75950000D02*
X116250000Y-77012653D01*
X114250000Y-75987347D02*
X114250000Y-75750000D01*
X115762653Y-77500000D02*
X114250000Y-75987347D01*
X128125000Y-77000000D02*
X128250000Y-77125000D01*
X127625000Y-77000000D02*
X128125000Y-77000000D01*
X128250000Y-77125000D02*
X128250000Y-78250000D01*
X127250000Y-79250000D02*
X128125000Y-78375000D01*
X126250000Y-79250000D02*
X127250000Y-79250000D01*
X128250000Y-78250000D02*
X128125000Y-78375000D01*
X115500000Y-98750000D02*
X114449999Y-98750000D01*
X114199999Y-98750000D02*
X113750000Y-98300001D01*
X115500000Y-98750000D02*
X114199999Y-98750000D01*
X110837127Y-97412873D02*
X110837127Y-96250000D01*
X111174254Y-97750000D02*
X110837127Y-97412873D01*
X112750000Y-97750000D02*
X111174254Y-97750000D01*
X112924999Y-97575001D02*
X112750000Y-97750000D01*
X114325001Y-97575001D02*
X112924999Y-97575001D01*
X117750000Y-97750000D02*
X114500000Y-97750000D01*
X118500000Y-98500000D02*
X117750000Y-97750000D01*
X114500000Y-97750000D02*
X114325001Y-97575001D01*
X119500000Y-98500000D02*
X118500000Y-98500000D01*
X112107127Y-77607127D02*
X112000000Y-77500000D01*
X112107127Y-79250000D02*
X112107127Y-77607127D01*
X113377127Y-77627127D02*
X113250000Y-77500000D01*
X113377127Y-79250000D02*
X113377127Y-77627127D01*
X121750000Y-74707127D02*
X121750000Y-71750000D01*
X121750000Y-71750000D02*
X122000000Y-71500000D01*
X122000000Y-71500000D02*
X122000000Y-70500000D01*
X121750000Y-74707127D02*
X121750000Y-75750000D01*
X119727127Y-77772873D02*
X120000000Y-77500000D01*
X119727127Y-79250000D02*
X119727127Y-77772873D01*
X120000000Y-77500000D02*
X119750000Y-77750000D01*
X121750000Y-75750000D02*
X120000000Y-77500000D01*
X120997127Y-77752873D02*
X120997127Y-79250000D01*
X124250000Y-74500000D02*
X120997127Y-77752873D01*
X125875000Y-74500000D02*
X124250000Y-74500000D01*
X117500000Y-73000000D02*
X117737347Y-72762653D01*
X117500000Y-77250000D02*
X117500000Y-73000000D01*
X117737347Y-72762653D02*
X117737347Y-71762653D01*
X117187127Y-77562873D02*
X117500000Y-77250000D01*
X117187127Y-79250000D02*
X117187127Y-77562873D01*
X102500000Y-62000000D02*
X104250000Y-62000000D01*
X125875000Y-77000000D02*
X125250000Y-77000000D01*
X125250000Y-77000000D02*
X125000000Y-77000000D01*
X125000000Y-77000000D02*
X124750000Y-77250000D01*
X124750000Y-77250000D02*
X124750000Y-77750000D01*
X124750000Y-77750000D02*
X124750000Y-77750000D01*
X124807127Y-77807127D02*
X124750000Y-77750000D01*
X124807127Y-79250000D02*
X124807127Y-77807127D01*
X117750000Y-98750000D02*
X118500000Y-99500000D01*
X117250000Y-98750000D02*
X117750000Y-98750000D01*
X118500000Y-99500000D02*
X121750000Y-99500000D01*
X121750000Y-99500000D02*
X122000000Y-99250000D01*
X122000000Y-99250000D02*
X122000000Y-98750000D01*
X122000000Y-98750000D02*
X121750000Y-98500000D01*
X121750000Y-98500000D02*
X121250000Y-98500000D01*
X122000000Y-98750000D02*
X122250000Y-98500000D01*
X122250000Y-98500000D02*
X124250000Y-98500000D01*
X126500000Y-98500000D02*
X126750000Y-98750000D01*
X126750000Y-98750000D02*
X127750000Y-98750000D01*
X121750000Y-98500000D02*
X122250000Y-98500000D01*
X127750000Y-95125000D02*
X127375000Y-95500000D01*
X127750000Y-94250000D02*
X127750000Y-95125000D01*
X127375000Y-95500000D02*
X127000000Y-95500000D01*
X127000000Y-95500000D02*
X126500000Y-96000000D01*
X126250000Y-98500000D02*
X126500000Y-98250000D01*
X126000000Y-98500000D02*
X126250000Y-98500000D01*
X126000000Y-98500000D02*
X126500000Y-98500000D01*
X126500000Y-98250000D02*
X126500000Y-98500000D01*
X126500000Y-96000000D02*
X126500000Y-98250000D01*
X124250000Y-98500000D02*
X126000000Y-98500000D01*
X119200000Y-59250000D02*
X119450000Y-59000000D01*
X119200000Y-60050000D02*
X119200000Y-59250000D01*
X119450000Y-59000000D02*
X120750000Y-59000000D01*
X120750000Y-59000000D02*
X121250000Y-58500000D01*
X121250000Y-58500000D02*
X122250000Y-58500000D01*
X122250000Y-58500000D02*
X122500000Y-58250000D01*
X122500000Y-58250000D02*
X122500000Y-57000000D01*
X126000000Y-56250000D02*
X124500000Y-56250000D01*
X123750000Y-57000000D02*
X122500000Y-57000000D01*
X124500000Y-56250000D02*
X123750000Y-57000000D01*
X126750000Y-57000000D02*
X126000000Y-56250000D01*
X128000000Y-57000000D02*
X126750000Y-57000000D01*
X122500000Y-60250000D02*
X128000000Y-60250000D01*
X129250000Y-60250000D02*
X128000000Y-60250000D01*
X129500000Y-60500000D02*
X129250000Y-60250000D01*
X128750000Y-67250000D02*
X129500000Y-66500000D01*
X128750000Y-69250000D02*
X128750000Y-67250000D01*
X128500000Y-69500000D02*
X128750000Y-69250000D01*
X129500000Y-66500000D02*
X129500000Y-60500000D01*
X127000000Y-69500000D02*
X128500000Y-69500000D01*
X128750000Y-69750000D02*
X128500000Y-69500000D01*
X128750000Y-70250000D02*
X128750000Y-69750000D01*
X128750000Y-69250000D02*
X128750000Y-69750000D01*
X103250000Y-57000000D02*
X102000000Y-57000000D01*
X104000000Y-56250000D02*
X103250000Y-57000000D01*
X105500000Y-56250000D02*
X104000000Y-56250000D01*
X106250000Y-57000000D02*
X105500000Y-56250000D01*
X107500000Y-57000000D02*
X106250000Y-57000000D01*
X102000000Y-60250000D02*
X107500000Y-60250000D01*
X102000000Y-63750000D02*
X102000000Y-65000000D01*
X102000000Y-65000000D02*
X102250000Y-65250000D01*
X102250000Y-65250000D02*
X107250000Y-65250000D01*
X107250000Y-65250000D02*
X107500000Y-65000000D01*
X107500000Y-65000000D02*
X107500000Y-63750000D01*
X109250000Y-62750000D02*
X109500000Y-62500000D01*
X109450000Y-65450000D02*
X109250000Y-65250000D01*
X112250000Y-62500000D02*
X112500000Y-62250000D01*
X112500000Y-62250000D02*
X112500000Y-61250000D01*
X109500000Y-62500000D02*
X112250000Y-62500000D01*
X109450000Y-65450000D02*
X109450000Y-65550000D01*
X109450000Y-65550000D02*
X109250000Y-65750000D01*
X109250000Y-65750000D02*
X109550000Y-65450000D01*
X109550000Y-65450000D02*
X109450000Y-65450000D01*
X111200000Y-65450000D02*
X109550000Y-65450000D01*
X109250000Y-64750000D02*
X109250000Y-65150000D01*
X109250000Y-65150000D02*
X109550000Y-65450000D01*
X109250000Y-65250000D02*
X109250000Y-64750000D01*
X109250000Y-64750000D02*
X109250000Y-62750000D01*
X109250000Y-65750000D02*
X109250000Y-65250000D01*
X105850000Y-67800000D02*
X106650000Y-67800000D01*
X110250000Y-69000000D02*
X111000000Y-69750000D01*
X110250000Y-67886410D02*
X110250000Y-69000000D01*
X109250000Y-66886410D02*
X110250000Y-67886410D01*
X111000000Y-69750000D02*
X111750000Y-69750000D01*
X109250000Y-65750000D02*
X109250000Y-66886410D01*
X106650000Y-67800000D02*
X107200000Y-67800000D01*
X107200000Y-67800000D02*
X107750000Y-67250000D01*
X108750000Y-67500000D02*
X108750000Y-67750000D01*
X108886410Y-67250000D02*
X109250000Y-66886410D01*
X108500000Y-67250000D02*
X108886410Y-67250000D01*
X108750000Y-67386410D02*
X108886410Y-67250000D01*
X108750000Y-67500000D02*
X108750000Y-67386410D01*
X108613590Y-67250000D02*
X108750000Y-67386410D01*
X108250000Y-67250000D02*
X108613590Y-67250000D01*
X107750000Y-67250000D02*
X108250000Y-67250000D01*
X108250000Y-67250000D02*
X108500000Y-67250000D01*
X126750000Y-72500000D02*
X127500000Y-72500000D01*
X127500000Y-72500000D02*
X127750000Y-72750000D01*
X127750000Y-72750000D02*
X128500000Y-72750000D01*
X128500000Y-72750000D02*
X128750000Y-72500000D01*
X128750000Y-72500000D02*
X128750000Y-72000000D01*
X128750000Y-73000000D02*
X128500000Y-72750000D01*
X128750000Y-73500000D02*
X128750000Y-73000000D01*
X128750000Y-72500000D02*
X128750000Y-73000000D01*
X127625000Y-74500000D02*
X128250000Y-74500000D01*
X128750000Y-74000000D02*
X128750000Y-73500000D01*
X128250000Y-74500000D02*
X128750000Y-74000000D01*
X124750000Y-75500000D02*
X125000000Y-75500000D01*
X125000000Y-75500000D02*
X125250000Y-75750000D01*
X125250000Y-75750000D02*
X128000000Y-75750000D01*
X128000000Y-75750000D02*
X128750000Y-76500000D01*
X128750000Y-78386410D02*
X127750000Y-79386410D01*
X128750000Y-76500000D02*
X128750000Y-78386410D01*
X127750000Y-79386410D02*
X127750000Y-81500000D01*
X127180000Y-82070000D02*
X127750000Y-81500000D01*
X125797127Y-82070000D02*
X127180000Y-82070000D01*
X123537127Y-76787127D02*
X123500000Y-76750000D01*
X123537127Y-79250000D02*
X123537127Y-76787127D01*
X118650000Y-76500000D02*
X118500000Y-76350000D01*
X119250000Y-76500000D02*
X118650000Y-76500000D01*
X119500000Y-76250000D02*
X119250000Y-76500000D01*
X119500000Y-73250000D02*
X119500000Y-76250000D01*
X119750000Y-73000000D02*
X119500000Y-73250000D01*
X120375000Y-73000000D02*
X119750000Y-73000000D01*
X120500000Y-73125000D02*
X120375000Y-73000000D01*
X118500000Y-76350000D02*
X118500000Y-75550000D01*
X120500000Y-73625000D02*
X120500000Y-73125000D01*
X118457127Y-79250000D02*
X118457127Y-78000000D01*
X120500000Y-75957126D02*
X120353563Y-76103563D01*
X120353563Y-76103563D02*
X120500000Y-75957127D01*
X118457127Y-78000000D02*
X120353563Y-76103563D01*
X120500000Y-75375000D02*
X120500000Y-75750000D01*
X120500000Y-75750000D02*
X120500000Y-75957126D01*
X120500000Y-75625000D02*
X120500000Y-75750000D01*
D10*
G36*
X112772127Y-86825000D02*
G01*
X112922127Y-86975000D01*
X114022127Y-86975000D01*
X114022127Y-86955000D01*
X114072127Y-86955000D01*
X114072127Y-86975000D01*
X115772127Y-86975000D01*
X115772127Y-86955000D01*
X115822127Y-86955000D01*
X115822127Y-86975000D01*
X117522127Y-86975000D01*
X117522127Y-86955000D01*
X117572127Y-86955000D01*
X117572127Y-86975000D01*
X117592127Y-86975000D01*
X117592127Y-87025000D01*
X117572127Y-87025000D01*
X117572127Y-88725000D01*
X117592127Y-88725000D01*
X117592127Y-88775000D01*
X117572127Y-88775000D01*
X117572127Y-90475000D01*
X117592127Y-90475000D01*
X117592127Y-90525000D01*
X117572127Y-90525000D01*
X117572127Y-90545000D01*
X117522127Y-90545000D01*
X117522127Y-90525000D01*
X115822127Y-90525000D01*
X115822127Y-90545000D01*
X115772127Y-90545000D01*
X115772127Y-90525000D01*
X114072127Y-90525000D01*
X114072127Y-90545000D01*
X114022127Y-90545000D01*
X114022127Y-90525000D01*
X112922127Y-90525000D01*
X112772127Y-90675000D01*
X112769369Y-91150000D01*
X111850000Y-91150000D01*
X111850000Y-89425000D01*
X112769224Y-89425000D01*
X112780809Y-89542621D01*
X112805798Y-89625000D01*
X112780809Y-89707379D01*
X112769224Y-89825000D01*
X112772127Y-90325000D01*
X112922127Y-90475000D01*
X114022127Y-90475000D01*
X114022127Y-88775000D01*
X114072127Y-88775000D01*
X114072127Y-90475000D01*
X115772127Y-90475000D01*
X115772127Y-88775000D01*
X115822127Y-88775000D01*
X115822127Y-90475000D01*
X117522127Y-90475000D01*
X117522127Y-88775000D01*
X115822127Y-88775000D01*
X115772127Y-88775000D01*
X114072127Y-88775000D01*
X114022127Y-88775000D01*
X112922127Y-88775000D01*
X112772127Y-88925000D01*
X112769224Y-89425000D01*
X111850000Y-89425000D01*
X111850000Y-87675000D01*
X112769224Y-87675000D01*
X112780809Y-87792621D01*
X112805798Y-87875000D01*
X112780809Y-87957379D01*
X112769224Y-88075000D01*
X112772127Y-88575000D01*
X112922127Y-88725000D01*
X114022127Y-88725000D01*
X114022127Y-87025000D01*
X114072127Y-87025000D01*
X114072127Y-88725000D01*
X115772127Y-88725000D01*
X115772127Y-87025000D01*
X115822127Y-87025000D01*
X115822127Y-88725000D01*
X117522127Y-88725000D01*
X117522127Y-87025000D01*
X115822127Y-87025000D01*
X115772127Y-87025000D01*
X114072127Y-87025000D01*
X114022127Y-87025000D01*
X112922127Y-87025000D01*
X112772127Y-87175000D01*
X112769224Y-87675000D01*
X111850000Y-87675000D01*
X111850000Y-86350000D01*
X112769369Y-86350000D01*
X112772127Y-86825000D01*
X112772127Y-86825000D01*
G37*
X112772127Y-86825000D02*
X112922127Y-86975000D01*
X114022127Y-86975000D01*
X114022127Y-86955000D01*
X114072127Y-86955000D01*
X114072127Y-86975000D01*
X115772127Y-86975000D01*
X115772127Y-86955000D01*
X115822127Y-86955000D01*
X115822127Y-86975000D01*
X117522127Y-86975000D01*
X117522127Y-86955000D01*
X117572127Y-86955000D01*
X117572127Y-86975000D01*
X117592127Y-86975000D01*
X117592127Y-87025000D01*
X117572127Y-87025000D01*
X117572127Y-88725000D01*
X117592127Y-88725000D01*
X117592127Y-88775000D01*
X117572127Y-88775000D01*
X117572127Y-90475000D01*
X117592127Y-90475000D01*
X117592127Y-90525000D01*
X117572127Y-90525000D01*
X117572127Y-90545000D01*
X117522127Y-90545000D01*
X117522127Y-90525000D01*
X115822127Y-90525000D01*
X115822127Y-90545000D01*
X115772127Y-90545000D01*
X115772127Y-90525000D01*
X114072127Y-90525000D01*
X114072127Y-90545000D01*
X114022127Y-90545000D01*
X114022127Y-90525000D01*
X112922127Y-90525000D01*
X112772127Y-90675000D01*
X112769369Y-91150000D01*
X111850000Y-91150000D01*
X111850000Y-89425000D01*
X112769224Y-89425000D01*
X112780809Y-89542621D01*
X112805798Y-89625000D01*
X112780809Y-89707379D01*
X112769224Y-89825000D01*
X112772127Y-90325000D01*
X112922127Y-90475000D01*
X114022127Y-90475000D01*
X114022127Y-88775000D01*
X114072127Y-88775000D01*
X114072127Y-90475000D01*
X115772127Y-90475000D01*
X115772127Y-88775000D01*
X115822127Y-88775000D01*
X115822127Y-90475000D01*
X117522127Y-90475000D01*
X117522127Y-88775000D01*
X115822127Y-88775000D01*
X115772127Y-88775000D01*
X114072127Y-88775000D01*
X114022127Y-88775000D01*
X112922127Y-88775000D01*
X112772127Y-88925000D01*
X112769224Y-89425000D01*
X111850000Y-89425000D01*
X111850000Y-87675000D01*
X112769224Y-87675000D01*
X112780809Y-87792621D01*
X112805798Y-87875000D01*
X112780809Y-87957379D01*
X112769224Y-88075000D01*
X112772127Y-88575000D01*
X112922127Y-88725000D01*
X114022127Y-88725000D01*
X114022127Y-87025000D01*
X114072127Y-87025000D01*
X114072127Y-88725000D01*
X115772127Y-88725000D01*
X115772127Y-87025000D01*
X115822127Y-87025000D01*
X115822127Y-88725000D01*
X117522127Y-88725000D01*
X117522127Y-87025000D01*
X115822127Y-87025000D01*
X115772127Y-87025000D01*
X114072127Y-87025000D01*
X114022127Y-87025000D01*
X112922127Y-87025000D01*
X112772127Y-87175000D01*
X112769224Y-87675000D01*
X111850000Y-87675000D01*
X111850000Y-86350000D01*
X112769369Y-86350000D01*
X112772127Y-86825000D01*
G36*
X113181388Y-62855065D02*
G01*
X113115413Y-62875078D01*
X113054610Y-62907578D01*
X113001315Y-62951315D01*
X112957578Y-63004610D01*
X112925078Y-63065413D01*
X112905065Y-63131388D01*
X112898307Y-63200000D01*
X112898307Y-63900000D01*
X112905065Y-63968612D01*
X112925078Y-64034587D01*
X112957578Y-64095390D01*
X113001315Y-64148685D01*
X113054610Y-64192422D01*
X113115413Y-64224922D01*
X113181388Y-64244935D01*
X113250000Y-64251693D01*
X114350000Y-64251693D01*
X114418612Y-64244935D01*
X114484587Y-64224922D01*
X114545390Y-64192422D01*
X114598685Y-64148685D01*
X114642422Y-64095390D01*
X114674922Y-64034587D01*
X114677830Y-64025000D01*
X115150000Y-64025000D01*
X115150000Y-64731879D01*
X115126316Y-64751315D01*
X115082579Y-64804610D01*
X115050079Y-64865413D01*
X115030066Y-64931388D01*
X115023308Y-65000000D01*
X115023308Y-65201558D01*
X114952384Y-65130634D01*
X114937501Y-65112499D01*
X114865173Y-65053141D01*
X114782654Y-65009034D01*
X114693116Y-64981873D01*
X114679508Y-64980533D01*
X114674922Y-64965413D01*
X114642422Y-64904610D01*
X114598685Y-64851315D01*
X114545390Y-64807578D01*
X114484587Y-64775078D01*
X114418612Y-64755065D01*
X114350000Y-64748307D01*
X113250000Y-64748307D01*
X113181388Y-64755065D01*
X113115413Y-64775078D01*
X113054610Y-64807578D01*
X113001315Y-64851315D01*
X112957578Y-64904610D01*
X112925078Y-64965413D01*
X112905065Y-65031388D01*
X112898307Y-65100000D01*
X112898307Y-65800000D01*
X112905065Y-65868612D01*
X112925078Y-65934587D01*
X112957578Y-65995390D01*
X113001315Y-66048685D01*
X113054610Y-66092422D01*
X113115413Y-66124922D01*
X113181388Y-66144935D01*
X113232811Y-66150000D01*
X111767199Y-66150000D01*
X111818612Y-66144936D01*
X111884587Y-66124923D01*
X111945391Y-66092423D01*
X111998685Y-66048685D01*
X112042423Y-65995391D01*
X112074923Y-65934587D01*
X112094936Y-65868612D01*
X112101694Y-65800000D01*
X112100000Y-65562500D01*
X112012500Y-65475000D01*
X111225000Y-65475000D01*
X111225000Y-65495000D01*
X111175000Y-65495000D01*
X111175000Y-65475000D01*
X111155000Y-65475000D01*
X111155000Y-65425000D01*
X111175000Y-65425000D01*
X111175000Y-65405000D01*
X111225000Y-65405000D01*
X111225000Y-65425000D01*
X112012500Y-65425000D01*
X112100000Y-65337500D01*
X112101694Y-65100000D01*
X112094936Y-65031388D01*
X112077831Y-64974998D01*
X112094935Y-64918612D01*
X112101693Y-64850000D01*
X112101693Y-64150000D01*
X112094935Y-64081388D01*
X112077830Y-64025000D01*
X112094935Y-63968612D01*
X112101693Y-63900000D01*
X112101693Y-63200000D01*
X112094935Y-63131388D01*
X112074922Y-63065413D01*
X112042422Y-63004610D01*
X111998685Y-62951315D01*
X111945390Y-62907578D01*
X111884587Y-62875078D01*
X111818612Y-62855065D01*
X111767189Y-62850000D01*
X113232811Y-62850000D01*
X113181388Y-62855065D01*
X113181388Y-62855065D01*
G37*
X113181388Y-62855065D02*
X113115413Y-62875078D01*
X113054610Y-62907578D01*
X113001315Y-62951315D01*
X112957578Y-63004610D01*
X112925078Y-63065413D01*
X112905065Y-63131388D01*
X112898307Y-63200000D01*
X112898307Y-63900000D01*
X112905065Y-63968612D01*
X112925078Y-64034587D01*
X112957578Y-64095390D01*
X113001315Y-64148685D01*
X113054610Y-64192422D01*
X113115413Y-64224922D01*
X113181388Y-64244935D01*
X113250000Y-64251693D01*
X114350000Y-64251693D01*
X114418612Y-64244935D01*
X114484587Y-64224922D01*
X114545390Y-64192422D01*
X114598685Y-64148685D01*
X114642422Y-64095390D01*
X114674922Y-64034587D01*
X114677830Y-64025000D01*
X115150000Y-64025000D01*
X115150000Y-64731879D01*
X115126316Y-64751315D01*
X115082579Y-64804610D01*
X115050079Y-64865413D01*
X115030066Y-64931388D01*
X115023308Y-65000000D01*
X115023308Y-65201558D01*
X114952384Y-65130634D01*
X114937501Y-65112499D01*
X114865173Y-65053141D01*
X114782654Y-65009034D01*
X114693116Y-64981873D01*
X114679508Y-64980533D01*
X114674922Y-64965413D01*
X114642422Y-64904610D01*
X114598685Y-64851315D01*
X114545390Y-64807578D01*
X114484587Y-64775078D01*
X114418612Y-64755065D01*
X114350000Y-64748307D01*
X113250000Y-64748307D01*
X113181388Y-64755065D01*
X113115413Y-64775078D01*
X113054610Y-64807578D01*
X113001315Y-64851315D01*
X112957578Y-64904610D01*
X112925078Y-64965413D01*
X112905065Y-65031388D01*
X112898307Y-65100000D01*
X112898307Y-65800000D01*
X112905065Y-65868612D01*
X112925078Y-65934587D01*
X112957578Y-65995390D01*
X113001315Y-66048685D01*
X113054610Y-66092422D01*
X113115413Y-66124922D01*
X113181388Y-66144935D01*
X113232811Y-66150000D01*
X111767199Y-66150000D01*
X111818612Y-66144936D01*
X111884587Y-66124923D01*
X111945391Y-66092423D01*
X111998685Y-66048685D01*
X112042423Y-65995391D01*
X112074923Y-65934587D01*
X112094936Y-65868612D01*
X112101694Y-65800000D01*
X112100000Y-65562500D01*
X112012500Y-65475000D01*
X111225000Y-65475000D01*
X111225000Y-65495000D01*
X111175000Y-65495000D01*
X111175000Y-65475000D01*
X111155000Y-65475000D01*
X111155000Y-65425000D01*
X111175000Y-65425000D01*
X111175000Y-65405000D01*
X111225000Y-65405000D01*
X111225000Y-65425000D01*
X112012500Y-65425000D01*
X112100000Y-65337500D01*
X112101694Y-65100000D01*
X112094936Y-65031388D01*
X112077831Y-64974998D01*
X112094935Y-64918612D01*
X112101693Y-64850000D01*
X112101693Y-64150000D01*
X112094935Y-64081388D01*
X112077830Y-64025000D01*
X112094935Y-63968612D01*
X112101693Y-63900000D01*
X112101693Y-63200000D01*
X112094935Y-63131388D01*
X112074922Y-63065413D01*
X112042422Y-63004610D01*
X111998685Y-62951315D01*
X111945390Y-62907578D01*
X111884587Y-62875078D01*
X111818612Y-62855065D01*
X111767189Y-62850000D01*
X113232811Y-62850000D01*
X113181388Y-62855065D01*
M02*
