M48
; DRILL file {KiCad (5.1.12)-1} date 11/30/21 21:54:41
; FORMAT={3:3/ absolute / metric / keep zeros}
; #@! TF.CreationDate,2021-11-30T21:54:41+03:00
; #@! TF.GenerationSoftware,Kicad,Pcbnew,(5.1.12)-1
; #@! TF.FileFunction,Plated,1,2,PTH
FMAT,2
METRIC
T1C0.400
T2C0.600
T3C0.800
T4C1.500
%
G90
G05
T1
X101000Y-076750
X102737Y-077013
X103250Y-067000
X103250Y-072500
X105250Y-072000
X109750Y-071500
X110000Y-063500
X110000Y-064500
X110000Y-098000
X110000Y-099250
X110250Y-066750
X111000Y-071725
X112000Y-077500
X112250Y-075000
X112250Y-087000
X112250Y-088750
X112250Y-090500
X113250Y-077500
X113750Y-071750
X113750Y-099250
X114326Y-098424
X115000Y-077000
X116000Y-068000
X116000Y-098000
X117250Y-098000
X117737Y-071763
X118750Y-072000
X121000Y-071250
X121250Y-062500
X123250Y-070000
X123750Y-075750
X127500Y-084500
X127500Y-085500
X127500Y-086750
X127500Y-090000
X127500Y-091500
X128750Y-092750
X128800Y-082200
T2
X127600Y-078350
X127600Y-096500
X129400Y-078350
X129400Y-096500
T3
X114750Y-057500
X114750Y-059500
X116750Y-057500
X119750Y-057500
X122750Y-066750
X128000Y-070000
X128000Y-072500
X128250Y-066750
T4
X102000Y-057000
X102000Y-060250
X102000Y-063750
X104750Y-057750
X104750Y-063750
X107500Y-057000
X107500Y-060250
X107500Y-063750
T2
G00X122400Y-055950
M15
G01X123400Y-055950
M16
G05
G00X122400Y-064550
M15
G01X123400Y-064550
M16
G05
G00X127500Y-055950
M15
G01X129000Y-055950
M16
G05
G00X127500Y-064550
M15
G01X129000Y-064550
M16
G05
T0
M30
